<svg
  xmlns="http://www.w3.org/2000/svg"
  width="278.235"
  height="314.344"
  viewBox="0 0 278.235 314.344"
>
  <g
    id="Group_207"
    data-name="Group 207"
    transform="translate(-1415.481 -1219.617)"
  >
    <g
      id="Group_194"
      data-name="Group 194"
      transform="translate(1436.481 1219.617)"
    >
      <g
        id="Path_1779"
        data-name="Path 1779"
        transform="translate(-21 21.526)"
        fill="#0f0a34"
      >
        <path
          d="M 139.1173095703125 292.31787109375 C 129.7136993408203 292.31787109375 120.3161163330078 291.3208618164062 111.1855773925781 289.3545532226562 C 102.2871170043945 287.4382019042969 93.53415679931641 284.5787353515625 85.169921875 280.8555603027344 C 76.95696258544922 277.1996765136719 69.03538513183594 272.6745910644531 61.6252326965332 267.406005859375 C 54.28488540649414 262.1870422363281 47.38223266601562 256.1933288574219 41.10900115966797 249.5912780761719 C 34.83530807495117 242.9887847900391 29.13953971862793 235.7235870361328 24.1798095703125 227.9974365234375 C 19.17230987548828 220.1968994140625 14.87138652801514 211.857666015625 11.39646339416504 203.2114410400391 C 7.857194423675537 194.4050445556641 5.138925075531006 185.1892395019531 3.317194223403931 175.8200073242188 C 1.447848081588745 166.2059326171875 0.5000019073486328 156.3106231689453 0.5000019073486328 146.408935546875 C 0.5000019073486328 136.5072479248047 1.447848081588745 126.6119384765625 3.317194223403931 116.9978561401367 C 5.138925075531006 107.6286315917969 7.857194423675537 98.41281890869141 11.39646339416504 89.60643768310547 C 14.87138652801514 80.960205078125 19.17230987548828 72.6209716796875 24.1798095703125 64.8204345703125 C 29.13953971862793 57.09428024291992 34.83530807495117 49.8290901184082 41.10900115966797 43.22658920288086 C 47.38223266601562 36.62454986572266 54.28488540649414 30.63081932067871 61.6252326965332 25.4118595123291 C 69.03538513183594 20.14328193664551 76.95696258544922 15.61820507049561 85.169921875 11.96232032775879 C 93.53415679931641 8.239128112792969 102.2871170043945 5.379666328430176 111.1855773925781 3.463320255279541 C 120.3161163330078 1.497012495994568 129.7136993408203 0.5000124573707581 139.1173095703125 0.5000124573707581 C 148.5209197998047 0.5000124573707581 157.9185028076172 1.497012495994568 167.0490417480469 3.463320255279541 C 175.9475402832031 5.379666328430176 184.7004699707031 8.239128112792969 193.0647277832031 11.96232032775879 C 201.2776947021484 15.61820507049561 209.1992645263672 20.14328193664551 216.6093902587891 25.4118595123291 C 223.9497375488281 30.63081932067871 230.8524322509766 36.62454986572266 237.1256561279297 43.22658920288086 C 243.3993072509766 49.8290901184082 249.0951232910156 57.09428024291992 254.0548095703125 64.8204345703125 C 259.0623168945312 72.6209716796875 263.3632202148438 80.960205078125 266.8381652832031 89.60643768310547 C 270.3774108886719 98.41281890869141 273.095703125 107.6286315917969 274.9174194335938 116.9978561401367 C 276.7867736816406 126.6119384765625 277.734619140625 136.5072479248047 277.734619140625 146.408935546875 C 277.734619140625 156.3106231689453 276.7867736816406 166.2059326171875 274.9174194335938 175.8200073242188 C 273.095703125 185.1892395019531 270.3774108886719 194.4050445556641 266.8381652832031 203.2114410400391 C 263.3632202148438 211.857666015625 259.0623168945312 220.1968994140625 254.0548095703125 227.9974365234375 C 249.0951232910156 235.7235870361328 243.3993072509766 242.9887847900391 237.1256561279297 249.5912780761719 C 230.8524322509766 256.1933288574219 223.9497375488281 262.1870422363281 216.6093902587891 267.406005859375 C 209.1992645263672 272.6745910644531 201.2776947021484 277.1996765136719 193.0647277832031 280.8555603027344 C 184.7004699707031 284.5787353515625 175.9475402832031 287.4382019042969 167.0490417480469 289.3545532226562 C 157.9185028076172 291.3208618164062 148.5209197998047 292.31787109375 139.1173095703125 292.31787109375 Z"
          stroke="none"
        />
        <path
          d="M 139.1173095703125 1 C 129.7490081787109 1 120.3868408203125 1.993255615234375 111.2908477783203 3.952117919921875 C 102.4259948730469 5.8612060546875 93.70603942871094 8.70989990234375 85.37322998046875 12.41912841796875 C 77.19058227539062 16.0615234375 69.29803466796875 20.57000732421875 61.91496276855469 25.81936645507812 C 54.60076904296875 31.01971435546875 47.72257995605469 36.99224853515625 41.47142028808594 43.57101440429688 C 35.21946716308594 50.15066528320312 29.54327392578125 57.39089965820312 24.6005859375 65.09051513671875 C 19.61004638671875 72.86470031738281 15.3236083984375 81.17578125 11.86038208007812 89.79289245605469 C 8.332916259765625 98.56990051269531 5.623687744140625 107.7550964355469 3.808013916015625 117.0932769775391 C 1.944732666015625 126.6759796142578 1 136.5391998291016 1 146.408935546875 C 1 156.2786712646484 1.944732666015625 166.1419067382812 3.808013916015625 175.7245483398438 C 5.623687744140625 185.062744140625 8.332916259765625 194.2479248046875 11.86038208007812 203.0249633789062 C 15.3236083984375 211.64208984375 19.61004638671875 219.9531555175781 24.6005859375 227.7273254394531 C 29.54327392578125 235.4269714355469 35.21946716308594 242.6671752929688 41.47142028808594 249.2468566894531 C 47.72257995605469 255.8256225585938 54.60076904296875 261.7981262207031 61.91496276855469 266.9985046386719 C 69.29803466796875 272.2478637695312 77.19058227539062 276.75634765625 85.37322998046875 280.3987426757812 C 93.70603942871094 284.1079406738281 102.4259948730469 286.9566650390625 111.2908477783203 288.8657531738281 C 120.3868408203125 290.8246154785156 129.7490081787109 291.81787109375 139.1173095703125 291.81787109375 C 148.4855804443359 291.81787109375 157.8477783203125 290.8246154785156 166.9437713623047 288.8657531738281 C 175.8086242675781 286.9566650390625 184.5285339355469 284.1079406738281 192.8613891601562 280.3987426757812 C 201.0440368652344 276.75634765625 208.9365386962891 272.2478637695312 216.3196563720703 266.9985046386719 C 223.6338500976562 261.7981262207031 230.5120391845703 255.8256225585938 236.7631530761719 249.2468566894531 C 243.0151519775391 242.6671752929688 248.6913146972656 235.4269714355469 253.634033203125 227.7273254394531 C 258.6245727539062 219.9531555175781 262.9110107421875 211.64208984375 266.3742370605469 203.0249633789062 C 269.9017028808594 194.2479248046875 272.6109313964844 185.062744140625 274.4266052246094 175.7245483398438 C 276.2898864746094 166.1419067382812 277.234619140625 156.2786712646484 277.234619140625 146.408935546875 C 277.234619140625 136.5391998291016 276.2898864746094 126.6759796142578 274.4266052246094 117.0932769775391 C 272.6109313964844 107.7550964355469 269.9017028808594 98.56990051269531 266.3742370605469 89.79289245605469 C 262.9110107421875 81.17578125 258.6245727539062 72.86470031738281 253.634033203125 65.09051513671875 C 248.6913146972656 57.39089965820312 243.0151519775391 50.15066528320312 236.7631530761719 43.57101440429688 C 230.5120391845703 36.99224853515625 223.6338500976562 31.01971435546875 216.3196563720703 25.81936645507812 C 208.9365386962891 20.57000732421875 201.0440368652344 16.0615234375 192.8613891601562 12.41912841796875 C 184.5285339355469 8.70989990234375 175.8086242675781 5.8612060546875 166.9437713623047 3.952117919921875 C 157.8477783203125 1.993255615234375 148.4856109619141 1 139.1173095703125 1 M 139.1173095703125 0 C 215.9496612548828 0 278.234619140625 65.54951477050781 278.234619140625 146.408935546875 C 278.234619140625 227.268310546875 215.9496612548828 292.81787109375 139.1173095703125 292.81787109375 C 62.28492736816406 292.81787109375 0 227.268310546875 0 146.408935546875 C 0 65.54951477050781 62.28492736816406 0 139.1173095703125 0 Z"
          stroke="none"
          fill="#707070"
        />
      </g>
      <g id="graph">
        <path
          id="Path_1367"
          data-name="Path 1367"
          d="M-785,1650.36h206.882"
          transform="translate(785 -1425.675)"
          fill="none"
          stroke="#f7f7f8"
          stroke-width="4"
        />
        <rect
          id="Rectangle_523"
          data-name="Rectangle 523"
          width="22.569"
          height="158.979"
          transform="translate(178.671 57.228)"
          fill="#4eeaf6"
        />
        <rect
          id="Rectangle_524"
          data-name="Rectangle 524"
          width="22.569"
          height="137.781"
          transform="translate(141.056 78.425)"
          fill="#c82586"
        />
        <rect
          id="Rectangle_525"
          data-name="Rectangle 525"
          width="22.569"
          height="82.669"
          transform="translate(103.441 133.538)"
          fill="#c82586"
        />
        <rect
          id="Rectangle_526"
          data-name="Rectangle 526"
          width="22.569"
          height="52.993"
          transform="translate(65.826 163.214)"
          fill="#6a45ab"
        />
        <rect
          id="Rectangle_527"
          data-name="Rectangle 527"
          width="22.569"
          height="31.796"
          transform="translate(28.211 184.411)"
          fill="#6a45ab"
        />
        <g id="Group_183" data-name="Group 183" transform="translate(0.001)">
          <path
            id="Path_1402"
            data-name="Path 1402"
            d="M45.138,0C70.067,0,90.276,22.777,90.276,50.873s-20.209,50.873-45.138,50.873S0,78.97,0,50.873,20.209,0,45.138,0Z"
            fill="#c82586"
          />
          <path
            id="Path_1369"
            data-name="Path 1369"
            d="M39.786,977.075c18.976,0,35.925,13.376,42.416,33.473s1.135,42.624-13.4,56.371-35.149,15.78-51.583,5.086l22.569-44.058Z"
            transform="translate(5.351 -977.075)"
            fill="#4eeaf6"
          />
          <path
            id="Path_1370"
            data-name="Path 1370"
            d="M29.217,977.075c18.257,0,34.715,12.395,41.7,31.4s3.125,40.891-9.785,55.441l-31.917-35.973Z"
            transform="translate(15.92 -977.075)"
            fill="#6a45ab"
          />
        </g>
      </g>
    </g>
  </g>
</svg>
