<svg
  xmlns="http://www.w3.org/2000/svg"
  width="793.939"
  height="720.054"
  viewBox="0 0 793.939 720.054"
>
  <g id="business-analyst" transform="translate(-41.579 -11.989)">
    <path
      id="Path_1416"
      data-name="Path 1416"
      d="M207.015,162.53l-.152,10.125-49.37,23.659.152-10.125Z"
      transform="translate(416.53 419.688)"
      fill="#4c4c5e"
    />
    <path
      id="Path_1417"
      data-name="Path 1417"
      d="M318.379,240.773l-.152,10.125L112.763,153.076l.147-10.125Z"
      transform="translate(255.796 365.104)"
      fill="#545466"
    />
    <path
      id="Path_1418"
      data-name="Path 1418"
      d="M367.634,234.527l-49.37,23.659L112.795,160.364l49.37-23.659Z"
      transform="translate(255.911 347.691)"
      fill="#616173"
    />
    <path
      id="Path_1419"
      data-name="Path 1419"
      d="M174.308,151.953l-.142,41.14-15.42,7.386.142-41.136Z"
      transform="translate(421.029 390.201)"
      fill="#dce8f1"
    />
    <path
      id="Path_1420"
      data-name="Path 1420"
      d="M300.429,217.306l-.142,41.136L119.356,172.3l.142-41.14Z"
      transform="translate(279.487 332.238)"
      fill="#e7f1f7"
    />
    <path
      id="Path_1421"
      data-name="Path 1421"
      d="M300.368,217.306l-.064,18.632L119.373,149.8l.064-18.636Z"
      transform="translate(279.548 332.238)"
      fill="#cfdee8"
    />
    <path
      id="Path_1422"
      data-name="Path 1422"
      d="M315.738,215.352l-15.42,7.39L119.387,136.6l15.42-7.386Z"
      transform="translate(279.599 326.802)"
      fill="#e7f1f7"
    />
    <path
      id="Path_1423"
      data-name="Path 1423"
      d="M91.6,27.056l20.652-9.9L111.278,326.1,90.621,336Z"
      transform="translate(176.23 14.41)"
      fill="#e1e4ea"
    />
    <path
      id="Path_1424"
      data-name="Path 1424"
      d="M236.977,166.377l-.067,49.439c0,3.379-1.525,5.776-3.86,6.916l-25.166,12.04c2.383-1.14,3.812-3.536,3.86-6.916l.154-49.446Z"
      transform="translate(597.605 430.413)"
      fill="#cfdee8"
    />
    <path
      id="Path_1425"
      data-name="Path 1425"
      d="M90.621,108.617l20.657-9.9L638.366,349.665l-20.652,9.9Z"
      transform="translate(176.23 241.791)"
      fill="#e1e4ea"
    />
    <path
      id="Path_1426"
      data-name="Path 1426"
      d="M206.348,93.306l20.657-9.9-.983,308.942-20.652,9.9Z"
      transform="translate(588.573 199.106)"
      fill="#e7f1f7"
    />
    <path
      id="Path_1427"
      data-name="Path 1427"
      d="M90.835,27.056l20.652-9.9L638.58,268.1,617.923,278Z"
      transform="translate(176.999 14.41)"
      fill="#e7f1f7"
    />
    <path
      id="Path_1428"
      data-name="Path 1428"
      d="M668.1,285.464c0-6.885-5.861-15.222-13.188-18.727L122.861,13.471c-3.517-1.693-6.886-1.935-9.231-.726L88.168,25.07c2.344-1.21,6.032-1.243,9.694.445L629.773,278.782c7.327,3.5,13.187,11.841,13.187,18.733l-.87,311.307,25.08-12.034Z"
      transform="translate(167.414 0)"
      fill="#cfdee8"
    />
    <g
      id="Group_210"
      data-name="Group 210"
      transform="translate(251.151 24.035)"
    >
      <path
        id="Path_1429"
        data-name="Path 1429"
        d="M91.6,19.771l-.983,308.942L617.713,579.659l.978-308.942Z"
        transform="translate(-74.921 -2.34)"
        fill="none"
      />
      <path
        id="Path_1740"
        data-name="Path 1740"
        d="M20.813,147.679,602.759,101.46h0Z"
        transform="translate(486.975 715.617) rotate(-150)"
        fill="none"
      />
      <path
        id="Path_1430"
        data-name="Path 1430"
        d="M630,357.724h0L102.9,106.778h0l-15.54-7.4L87.2,148.85c-.023,6.825,5.851,15.215,13.054,18.644L632.214,420.757c7.3,3.474,13.211.7,13.235-6.128l.107-49.437Z"
        transform="translate(-87.203 219.595)"
        fill="#e7f1f7"
      />
      <path
        id="Path_1431"
        data-name="Path 1431"
        d="M155.665,137.4c8.732,4.157,15.779,14.223,15.751,22.48-.028,8.274-7.122,11.607-15.854,7.45-8.714-4.149-15.761-14.214-15.732-22.488S146.951,133.25,155.665,137.4Z"
        transform="translate(101.907 320.619)"
        fill="#cfdee8"
      />
      <path
        id="Path_1432"
        data-name="Path 1432"
        d="M629.871,592.488l15.561,7.468,1.052-311.365c.023-6.825-5.852-15.215-13.15-18.689L101.377,16.64c-7.2-3.43-13.116-.652-13.139,6.173l-1,311.33,15.54,7.4Z"
        transform="translate(-87.079 -15.169)"
        fill="#474756"
      />
    </g>
    <path
      id="Path_1433"
      data-name="Path 1433"
      d="M618.692,270.717l-.978,284.889L90.621,304.66,91.6,19.771Z"
      transform="translate(176.23 21.695)"
      fill="#3765c7"
    />
    <g
      id="Group_211"
      data-name="Group 211"
      transform="translate(433.762 188.53)"
    >
      <path
        id="Path_1434"
        data-name="Path 1434"
        d="M469.463,221.648l-.721,198.708L126.958,257.6V58.6Z"
        transform="translate(-126.958 -58.596)"
        fill="#fff"
      />
      <path
        id="Path_1435"
        data-name="Path 1435"
        d="M404.005,196.407l-3.354-1.6-23.514-11.2-3.354-1.6L350.27,170.824l-3.354-1.6L323.4,158.032l-3.354-1.6L296.535,145.24l-3.354-1.6-23.514-11.195-3.354-1.6L242.8,119.657l-3.373-1.606-23.5-11.186-3.372-1.606-23.5-11.186-3.373-1.606L162.178,81.273l-3.354-1.6L131.957,66.885l-.088,25.459-.011,3.178-.077,22.281-.011,3.178-.077,22.281-.011,3.178-.077,22.281L131.6,171.9l-.077,22.28-.011,3.178-.088,25.459,26.867,12.792,3.354,1.6L185.156,248.4,188.529,250l23.495,11.186,3.373,1.605,23.495,11.186,3.373,1.606,23.514,11.195,3.354,1.6,23.514,11.2,3.354,1.6,23.514,11.195,3.354,1.6,23.514,11.195,3.354,1.6,23.514,11.195,3.354,1.6,23.514,11.195,3.354,1.6,26.867,12.791.088-25.458.011-3.178.077-22.281.011-3.178.077-22.28.011-3.178.077-22.281.011-3.178.077-22.281.011-3.178.087-25.459ZM158.3,232.429l-23.514-11.195.077-22.281,23.514,11.195Zm.087-25.458-23.514-11.195.077-22.281,23.514,11.195Zm.087-25.459-23.514-11.195.077-22.281,23.514,11.195Zm.087-25.459-23.514-11.195.077-22.281,23.514,11.195Zm.087-25.459L135.133,119.4l.077-22.281,23.514,11.195Zm.087-25.459L135.22,93.941,135.3,71.66l23.514,11.195Zm26.431,140.085-23.514-11.195.076-22.281,23.514,11.195Zm.087-25.458-23.514-11.2.077-22.28,23.514,11.195Zm.087-25.458L161.825,183.11l.077-22.281,23.514,11.195Zm.087-25.46L161.913,157.65l.077-22.281L185.5,146.564Zm.092-25.459L162,132.191l.077-22.281,23.514,11.2Zm.087-25.458-23.514-11.2.077-22.281,23.514,11.195Zm26.426,140.085-23.495-11.186.077-22.281,23.495,11.186Zm.087-25.458-23.495-11.186.077-22.28L212.2,210.274Zm.092-25.458L188.716,195.91l.077-22.281,23.495,11.186Zm.087-25.46L188.8,170.45l.077-22.28,23.495,11.186Zm.087-25.459-23.5-11.186.077-22.281L212.462,133.9Zm.087-25.459-23.5-11.186.077-22.281,23.495,11.186ZM238.9,270.8l-23.5-11.186.077-22.28,23.5,11.186Zm.087-25.458L215.5,234.16l.077-22.281,23.5,11.186Zm.087-25.458-23.5-11.186.077-22.281,23.5,11.186Zm.087-25.458-23.5-11.186.077-22.281,23.5,11.186Zm.087-25.46-23.5-11.186.077-22.281,23.5,11.186Zm.087-25.459-23.5-11.186.077-22.281,23.5,11.186ZM265.789,283.6l-23.514-11.195.077-22.281,23.514,11.195Zm.087-25.458L242.362,246.95l.077-22.281,23.514,11.195Zm.087-25.458-23.514-11.195.077-22.281,23.514,11.195Zm.087-25.458-23.514-11.195.077-22.281,23.514,11.195Zm.087-25.459-23.514-11.195.077-22.281,23.514,11.2Zm.087-25.459-23.514-11.195.077-22.281L266.3,134.03ZM292.656,296.4l-23.514-11.2.077-22.281,23.514,11.195Zm.087-25.458-23.514-11.195.077-22.281,23.514,11.2Zm.087-25.458-23.514-11.2L269.393,212,292.907,223.2Zm.087-25.458L269.4,208.826l.077-22.28,23.514,11.195Zm.087-25.458-23.514-11.195.077-22.281,23.514,11.195Zm.087-25.459-23.514-11.195.076-22.281,23.514,11.2Zm26.431,140.084-23.514-11.195.077-22.28L319.6,286.906Zm.087-25.458-23.514-11.2.077-22.281,23.514,11.195Zm.087-25.458-23.514-11.195.077-22.28,23.514,11.195Zm.087-25.458-23.514-11.195.077-22.281,23.514,11.2Zm.087-25.458-23.514-11.195.077-22.281,23.514,11.195Zm.087-25.459L296.445,170.7l.077-22.281,23.514,11.195ZM346.39,321.978l-23.514-11.195.076-22.281L346.467,299.7Zm.087-25.458-23.514-11.195.077-22.28,23.514,11.195Zm.087-25.458-23.514-11.195.077-22.281,23.514,11.2Zm.087-25.458-23.514-11.195.077-22.28,23.514,11.195Zm.087-25.458-23.514-11.195.077-22.281,23.514,11.195Zm.087-25.458-23.514-11.195.076-22.281,23.514,11.2ZM373.257,334.77l-23.514-11.195.077-22.281,23.514,11.195Zm.087-25.458L349.83,298.117l.077-22.281,23.514,11.2Zm.087-25.458-23.514-11.195.077-22.281,23.514,11.195Zm.087-25.458L350.005,247.2l.077-22.28L373.6,236.115Zm.092-25.458-23.514-11.2.077-22.281,23.514,11.195Zm.087-25.458-23.514-11.195L350.261,174,373.774,185.2Zm26.426,140.083L376.61,336.367l.077-22.281,23.514,11.2Zm.087-25.458L376.7,310.908l.077-22.281,23.514,11.195Zm.092-25.458L376.789,285.45l.077-22.281,23.514,11.2Zm.087-25.458-23.514-11.2.077-22.281,23.514,11.195Zm.087-25.458-23.514-11.195.077-22.281,23.514,11.195Zm.087-25.458-23.514-11.2.077-22.281,23.514,11.195ZM427,360.353l-23.514-11.195.077-22.281,23.514,11.195Zm.087-25.458L403.569,323.7l.077-22.28,23.514,11.195Zm.087-25.458-23.514-11.195.077-22.281,23.514,11.195Zm.087-25.458-23.514-11.195.077-22.28L427.334,261.7Zm.087-25.458-23.514-11.195.077-22.281,23.514,11.195Zm.087-25.458-23.514-11.195.077-22.281,23.514,11.195Z"
        transform="translate(-110.921 -35.487)"
        fill="#dce8f1"
      />
      <path
        id="Path_1436"
        data-name="Path 1436"
        d="M266.181,112.655l2.765,3.22L210.77,164.7l-40.183-57.379,2.421-1.174,37.335,53.341Z"
        transform="translate(29.82 73.981)"
        fill="#e22951"
      />
      <path
        id="Path_1437"
        data-name="Path 1437"
        d="M267.64,167.4l26.931-14.917L309.417,173.7l-2.425,1.17-12.338-17.625L267.8,172.124,212.289,95.136l-53.468,25.087L131.954,81.829l2.439-1.144,24.446,34.935L212.247,90.56Z"
        transform="translate(-109.005 2.985)"
        fill="#c82586"
      />
      <path
        id="Path_1438"
        data-name="Path 1438"
        d="M379.329,125.827l2.981,3.026-30.6,36.269-25.746-38.716-12.219,5.905-2.421,1.174-41.4,20.019-26.844-38.913L186.3,139.782l-25.843-38.4-26.637,12.261-2.4-3.466,29.127-13.413,25.861,38.424,56.747-25.17,26.807,38.856,38.943-18.845,2.425-1.17,14.731-7.129,25,37.591Z"
        transform="translate(-110.92 47.82)"
        fill="#af5fec"
      />
    </g>
    <g
      id="Group_214"
      data-name="Group 214"
      transform="translate(274.922 58.471)"
    >
      <path
        id="Path_1439"
        data-name="Path 1439"
        d="M218.162,83.484c3.092,1.472,5.593,5.043,5.583,7.973l-.153,44.415c-.01,2.935-2.527,4.117-5.619,2.645L99.248,81.911c-3.092-1.472-5.593-5.043-5.583-7.978l.153-44.415c.01-2.93,2.527-4.113,5.619-2.64Z"
        transform="translate(-87.751 -18.729)"
        fill="#1352ab"
      />
      <path
        id="Path_1440"
        data-name="Path 1440"
        d="M216.878,81.5c3.092,1.472,5.593,5.043,5.583,7.973l-.153,44.415c-.01,2.935-2.527,4.117-5.619,2.645L97.961,79.927c-3.092-1.472-5.593-5.043-5.583-7.978l.153-44.415c.01-2.93,2.527-4.113,5.619-2.64Z"
        transform="translate(-92.378 -24.26)"
        fill="#fff"
      />
      <path
        id="Path_1441"
        data-name="Path 1441"
        d="M137.145,52.589l-.092,26.564a4.449,4.449,0,0,1-1.153,3.189c-1.315,1.312-3.606,1.509-6.2.273L101.664,69.269A14.044,14.044,0,0,1,95.582,63.3a9.691,9.691,0,0,1-1.238-4.476l.092-26.564c.015-3.842,3.306-5.389,7.365-3.462L129.833,42.14C133.884,44.074,137.159,48.753,137.145,52.589Z"
        transform="translate(-85.314 -13.929)"
        fill="#dce8f1"
      />
      <path
        id="Path_1442"
        data-name="Path 1442"
        d="M113.319,31.826c4.279,2.037,7.736,6.976,7.722,11.03s-3.494,5.691-7.772,3.654-7.737-6.976-7.723-11.031S109.04,29.788,113.319,31.826Zm21.612,42.2c-1.315,1.312-3.606,1.509-6.2.273L100.7,60.951a14.044,14.044,0,0,1-6.081-5.972c3.045-6.359,10.963-8.153,20.235-3.741A40.9,40.9,0,0,1,134.931,74.024Z"
        transform="translate(-84.345 -5.611)"
        fill="#c82586"
      />
      <path
        id="Path_1443"
        data-name="Path 1443"
        d="M114.046,47.216l-.019,5.46a.914.914,0,0,1-.237.655,1.1,1.1,0,0,1-1.275.056l-5.762-2.743a2.887,2.887,0,0,1-1.25-1.228,1.992,1.992,0,0,1-.254-.92l.019-5.46c0-.79.679-1.108,1.514-.712l5.762,2.743A2.684,2.684,0,0,1,114.046,47.216Z"
        transform="translate(-46.129 25.627)"
        fill="#c5d4dd"
      />
      <path
        id="Path_1444"
        data-name="Path 1444"
        d="M157.525,66.8,108.219,43.323l-.009,2.53L157.525,69.33Z"
        transform="translate(-35.488 28.884)"
        fill="#c5d4dd"
      />
      <path
        id="Path_1445"
        data-name="Path 1445"
        d="M133.327,57l-.009,2.527L108.2,47.572l.009-2.527Z"
        transform="translate(-35.506 33.685)"
        fill="#c5d4dd"
      />
      <g
        id="Group_212"
        data-name="Group 212"
        transform="translate(59.12 52.565)"
      >
        <path
          id="Path_1446"
          data-name="Path 1446"
          d="M114.046,43.2l-.019,5.46a.914.914,0,0,1-.237.655,1.1,1.1,0,0,1-1.275.056l-5.762-2.743A2.887,2.887,0,0,1,105.5,45.4a1.991,1.991,0,0,1-.254-.92l.019-5.46c0-.79.679-1.108,1.514-.712l5.762,2.743A2.684,2.684,0,0,1,114.046,43.2Z"
          transform="translate(-105.249 -38.137)"
          fill="#c5d4dd"
        />
        <path
          id="Path_1447"
          data-name="Path 1447"
          d="M157.525,62.783,108.219,39.306l-.009,2.527,49.315,23.481Z"
          transform="translate(-94.608 -34.88)"
          fill="#c5d4dd"
        />
        <path
          id="Path_1448"
          data-name="Path 1448"
          d="M133.327,52.982l-.009,2.53L108.2,43.555l.009-2.527Z"
          transform="translate(-94.626 -30.079)"
          fill="#c5d4dd"
        />
      </g>
      <g
        id="Group_213"
        data-name="Group 213"
        transform="translate(59.12 37.348)"
      >
        <path
          id="Path_1449"
          data-name="Path 1449"
          d="M114.046,39.181l-.019,5.46a.914.914,0,0,1-.237.655,1.1,1.1,0,0,1-1.275.056l-5.762-2.743a2.887,2.887,0,0,1-1.25-1.228,1.992,1.992,0,0,1-.254-.92l.019-5.46c0-.79.679-1.108,1.514-.712l5.762,2.743A2.684,2.684,0,0,1,114.046,39.181Z"
          transform="translate(-105.249 -34.12)"
          fill="#c5d4dd"
        />
        <path
          id="Path_1450"
          data-name="Path 1450"
          d="M157.525,58.766,108.219,35.289l-.009,2.527L157.525,61.3Z"
          transform="translate(-94.608 -30.862)"
          fill="#c5d4dd"
        />
        <path
          id="Path_1451"
          data-name="Path 1451"
          d="M133.327,48.965l-.009,2.527L108.2,39.538l.009-2.527Z"
          transform="translate(-94.626 -26.061)"
          fill="#c5d4dd"
        />
      </g>
    </g>
    <g
      id="Group_217"
      data-name="Group 217"
      transform="translate(274.922 126.253)"
    >
      <path
        id="Path_1452"
        data-name="Path 1452"
        d="M218.162,101.379c3.092,1.472,5.593,5.043,5.583,7.973l-.153,44.415c-.01,2.935-2.527,4.117-5.619,2.645L99.248,99.805c-3.092-1.472-5.593-5.043-5.583-7.978l.153-44.415c.01-2.93,2.527-4.113,5.619-2.64Z"
        transform="translate(-87.751 -36.624)"
        fill="#1352ab"
      />
      <path
        id="Path_1453"
        data-name="Path 1453"
        d="M216.878,99.4c3.092,1.472,5.593,5.043,5.583,7.973l-.153,44.415c-.01,2.935-2.527,4.117-5.619,2.645L97.961,97.822c-3.092-1.472-5.593-5.043-5.583-7.978l.153-44.415c.01-2.93,2.527-4.113,5.619-2.64Z"
        transform="translate(-92.378 -42.155)"
        fill="#fff"
      />
      <path
        id="Path_1454"
        data-name="Path 1454"
        d="M137.145,70.483l-.092,26.564a4.449,4.449,0,0,1-1.153,3.189c-1.315,1.312-3.606,1.509-6.2.273L101.664,87.164a14.044,14.044,0,0,1-6.081-5.972,9.691,9.691,0,0,1-1.238-4.476l.092-26.564c.015-3.842,3.306-5.389,7.365-3.462l28.031,13.345C133.884,61.969,137.159,66.648,137.145,70.483Z"
        transform="translate(-85.314 -31.824)"
        fill="#dce8f1"
      />
      <path
        id="Path_1455"
        data-name="Path 1455"
        d="M113.319,49.721c4.279,2.037,7.736,6.976,7.722,11.03s-3.494,5.691-7.772,3.654-7.737-6.976-7.723-11.031S109.04,47.683,113.319,49.721Zm21.612,42.2c-1.315,1.312-3.606,1.509-6.2.273L100.7,78.845a14.044,14.044,0,0,1-6.081-5.972c3.045-6.359,10.963-8.153,20.235-3.741A40.9,40.9,0,0,1,134.931,91.918Z"
        transform="translate(-84.345 -23.506)"
        fill="#af5fec"
      />
      <path
        id="Path_1456"
        data-name="Path 1456"
        d="M114.046,65.11l-.019,5.46a.914.914,0,0,1-.237.655,1.1,1.1,0,0,1-1.275.056l-5.762-2.743a2.887,2.887,0,0,1-1.25-1.228,1.991,1.991,0,0,1-.254-.92l.019-5.46c0-.79.679-1.108,1.514-.712l5.762,2.743A2.684,2.684,0,0,1,114.046,65.11Z"
        transform="translate(-46.129 7.733)"
        fill="#c5d4dd"
      />
      <path
        id="Path_1457"
        data-name="Path 1457"
        d="M157.525,84.7,108.219,61.218l-.009,2.526,49.315,23.481Z"
        transform="translate(-35.488 10.991)"
        fill="#c5d4dd"
      />
      <path
        id="Path_1458"
        data-name="Path 1458"
        d="M133.327,74.895l-.009,2.526L108.2,65.466l.009-2.526Z"
        transform="translate(-35.506 15.791)"
        fill="#c5d4dd"
      />
      <g
        id="Group_215"
        data-name="Group 215"
        transform="translate(59.12 52.565)"
      >
        <path
          id="Path_1459"
          data-name="Path 1459"
          d="M114.046,61.093l-.019,5.46a.914.914,0,0,1-.237.655,1.1,1.1,0,0,1-1.275.056l-5.762-2.743a2.887,2.887,0,0,1-1.25-1.228,1.992,1.992,0,0,1-.254-.92l.019-5.46c0-.79.679-1.108,1.514-.711l5.762,2.743A2.684,2.684,0,0,1,114.046,61.093Z"
          transform="translate(-105.249 -56.032)"
          fill="#c5d4dd"
        />
        <path
          id="Path_1460"
          data-name="Path 1460"
          d="M157.525,80.674,108.219,57.2l-.009,2.526,49.315,23.481Z"
          transform="translate(-94.608 -52.773)"
          fill="#c5d4dd"
        />
        <path
          id="Path_1461"
          data-name="Path 1461"
          d="M133.327,70.877l-.009,2.527L108.2,61.45l.009-2.526Z"
          transform="translate(-94.626 -47.973)"
          fill="#c5d4dd"
        />
      </g>
      <g
        id="Group_216"
        data-name="Group 216"
        transform="translate(59.12 37.348)"
      >
        <path
          id="Path_1462"
          data-name="Path 1462"
          d="M114.046,57.076l-.019,5.46a.914.914,0,0,1-.237.655,1.1,1.1,0,0,1-1.275.056L106.753,60.5a2.887,2.887,0,0,1-1.25-1.228,1.991,1.991,0,0,1-.254-.92l.019-5.46c0-.79.679-1.108,1.514-.712l5.762,2.743A2.684,2.684,0,0,1,114.046,57.076Z"
          transform="translate(-105.249 -52.015)"
          fill="#c5d4dd"
        />
        <path
          id="Path_1463"
          data-name="Path 1463"
          d="M157.525,76.66,108.219,53.183l-.009,2.53L157.525,79.19Z"
          transform="translate(-94.608 -48.758)"
          fill="#c5d4dd"
        />
        <path
          id="Path_1464"
          data-name="Path 1464"
          d="M133.327,66.863l-.009,2.527L108.2,57.431l.009-2.526Z"
          transform="translate(-94.626 -43.957)"
          fill="#c5d4dd"
        />
      </g>
    </g>
    <g
      id="Group_220"
      data-name="Group 220"
      transform="translate(274.922 194.035)"
    >
      <path
        id="Path_1465"
        data-name="Path 1465"
        d="M218.162,119.273c3.092,1.472,5.593,5.043,5.583,7.973l-.153,44.415c-.01,2.935-2.527,4.117-5.619,2.645L99.248,117.7c-3.092-1.472-5.593-5.043-5.583-7.978l.153-44.415c.01-2.93,2.527-4.113,5.619-2.64Z"
        transform="translate(-87.751 -54.519)"
        fill="#1352ab"
      />
      <path
        id="Path_1466"
        data-name="Path 1466"
        d="M216.878,117.29c3.092,1.472,5.593,5.043,5.583,7.973l-.153,44.415c-.01,2.935-2.527,4.117-5.619,2.645L97.961,115.716c-3.092-1.472-5.593-5.043-5.583-7.978l.153-44.415c.01-2.93,2.527-4.113,5.619-2.64Z"
        transform="translate(-92.378 -60.049)"
        fill="#fff"
      />
      <path
        id="Path_1467"
        data-name="Path 1467"
        d="M137.145,88.378l-.092,26.564a4.449,4.449,0,0,1-1.153,3.189c-1.315,1.312-3.606,1.509-6.2.273l-28.031-13.346a14.044,14.044,0,0,1-6.081-5.972,9.691,9.691,0,0,1-1.238-4.476l.092-26.564c.015-3.842,3.306-5.389,7.365-3.462L129.833,77.93C133.884,79.863,137.159,84.542,137.145,88.378Z"
        transform="translate(-85.314 -49.718)"
        fill="#dce8f1"
      />
      <path
        id="Path_1468"
        data-name="Path 1468"
        d="M113.319,67.615c4.279,2.037,7.736,6.976,7.722,11.03s-3.494,5.69-7.772,3.654-7.737-6.976-7.723-11.031S109.04,65.578,113.319,67.615Zm21.612,42.2c-1.315,1.312-3.606,1.509-6.2.273L100.7,96.74a14.044,14.044,0,0,1-6.081-5.972c3.045-6.359,10.963-8.153,20.235-3.741A40.9,40.9,0,0,1,134.931,109.813Z"
        transform="translate(-84.345 -41.401)"
        fill="#4eeaf6"
      />
      <path
        id="Path_1469"
        data-name="Path 1469"
        d="M114.046,83.005l-.019,5.46a.914.914,0,0,1-.237.656,1.1,1.1,0,0,1-1.275.056l-5.762-2.743a2.886,2.886,0,0,1-1.25-1.228,1.991,1.991,0,0,1-.254-.92l.019-5.46c0-.79.679-1.108,1.514-.712l5.762,2.743A2.684,2.684,0,0,1,114.046,83.005Z"
        transform="translate(-46.129 -10.162)"
        fill="#c5d4dd"
      />
      <path
        id="Path_1470"
        data-name="Path 1470"
        d="M157.525,102.586,108.219,79.113l-.009,2.526,49.315,23.481Z"
        transform="translate(-35.488 -6.903)"
        fill="#c5d4dd"
      />
      <path
        id="Path_1471"
        data-name="Path 1471"
        d="M133.327,92.792l-.009,2.527L108.2,83.364l.009-2.53Z"
        transform="translate(-35.506 -2.105)"
        fill="#c5d4dd"
      />
      <g
        id="Group_218"
        data-name="Group 218"
        transform="translate(59.12 52.565)"
      >
        <path
          id="Path_1472"
          data-name="Path 1472"
          d="M114.046,78.988l-.019,5.46a.914.914,0,0,1-.237.655,1.1,1.1,0,0,1-1.275.056l-5.762-2.743a2.887,2.887,0,0,1-1.25-1.228,1.991,1.991,0,0,1-.254-.92l.019-5.46c0-.79.679-1.108,1.514-.711l5.762,2.743A2.684,2.684,0,0,1,114.046,78.988Z"
          transform="translate(-105.249 -73.927)"
          fill="#c5d4dd"
        />
        <path
          id="Path_1473"
          data-name="Path 1473"
          d="M157.525,98.572,108.219,75.095l-.009,2.527L157.525,101.1Z"
          transform="translate(-94.608 -70.67)"
          fill="#c5d4dd"
        />
        <path
          id="Path_1474"
          data-name="Path 1474"
          d="M133.327,88.775l-.009,2.527L108.2,79.344l.009-2.527Z"
          transform="translate(-94.626 -65.869)"
          fill="#c5d4dd"
        />
      </g>
      <g
        id="Group_219"
        data-name="Group 219"
        transform="translate(59.12 37.349)"
      >
        <path
          id="Path_1475"
          data-name="Path 1475"
          d="M114.046,74.97l-.019,5.46a.914.914,0,0,1-.237.656,1.1,1.1,0,0,1-1.275.056L106.753,78.4a2.887,2.887,0,0,1-1.25-1.228,1.991,1.991,0,0,1-.254-.92l.019-5.46c0-.79.679-1.108,1.514-.712l5.762,2.743A2.683,2.683,0,0,1,114.046,74.97Z"
          transform="translate(-105.249 -69.91)"
          fill="#c5d4dd"
        />
        <path
          id="Path_1476"
          data-name="Path 1476"
          d="M157.525,94.555,108.219,71.078,108.21,73.6l49.315,23.481Z"
          transform="translate(-94.608 -66.652)"
          fill="#c5d4dd"
        />
        <path
          id="Path_1477"
          data-name="Path 1477"
          d="M133.327,84.755l-.009,2.53L108.2,75.327l.009-2.527Z"
          transform="translate(-94.626 -61.851)"
          fill="#c5d4dd"
        />
      </g>
    </g>
    <g
      id="Group_223"
      data-name="Group 223"
      transform="translate(274.922 261.818)"
    >
      <path
        id="Path_1478"
        data-name="Path 1478"
        d="M218.162,137.168c3.092,1.472,5.593,5.043,5.583,7.973l-.153,44.415c-.01,2.935-2.527,4.117-5.619,2.645L99.248,135.595c-3.092-1.472-5.593-5.043-5.583-7.978L93.819,83.2c.01-2.93,2.527-4.113,5.619-2.64Z"
        transform="translate(-87.751 -72.414)"
        fill="#1352ab"
      />
      <path
        id="Path_1479"
        data-name="Path 1479"
        d="M216.878,135.184c3.092,1.472,5.593,5.043,5.583,7.973l-.153,44.415c-.01,2.935-2.527,4.117-5.619,2.645L97.961,133.611c-3.092-1.472-5.593-5.043-5.583-7.978l.153-44.415c.01-2.93,2.527-4.113,5.619-2.64Z"
        transform="translate(-92.378 -77.944)"
        fill="#fff"
      />
      <path
        id="Path_1480"
        data-name="Path 1480"
        d="M137.145,106.272l-.092,26.564a4.448,4.448,0,0,1-1.153,3.189c-1.315,1.312-3.606,1.509-6.2.273l-28.031-13.346a14.044,14.044,0,0,1-6.081-5.972,9.691,9.691,0,0,1-1.238-4.476l.092-26.564c.015-3.842,3.306-5.389,7.365-3.462l28.031,13.345C133.884,97.758,137.159,102.437,137.145,106.272Z"
        transform="translate(-85.314 -67.614)"
        fill="#dce8f1"
      />
      <path
        id="Path_1481"
        data-name="Path 1481"
        d="M113.319,85.51c4.279,2.037,7.736,6.976,7.722,11.03s-3.494,5.691-7.772,3.654-7.737-6.976-7.723-11.031S109.04,83.472,113.319,85.51Zm21.612,42.2c-1.315,1.312-3.606,1.509-6.2.273L100.7,114.635a14.044,14.044,0,0,1-6.081-5.972c3.045-6.359,10.963-8.153,20.235-3.741A40.893,40.893,0,0,1,134.931,127.708Z"
        transform="translate(-84.345 -59.295)"
        fill="#3765c7"
      />
      <path
        id="Path_1482"
        data-name="Path 1482"
        d="M114.046,100.9l-.019,5.46a.914.914,0,0,1-.237.656,1.1,1.1,0,0,1-1.275.056l-5.762-2.743a2.886,2.886,0,0,1-1.25-1.228,1.991,1.991,0,0,1-.254-.92l.019-5.46c0-.79.679-1.108,1.514-.712l5.762,2.743A2.684,2.684,0,0,1,114.046,100.9Z"
        transform="translate(-46.129 -28.057)"
        fill="#c5d4dd"
      />
      <path
        id="Path_1483"
        data-name="Path 1483"
        d="M157.525,120.484,108.219,97.007l-.009,2.527,49.315,23.481Z"
        transform="translate(-35.488 -24.799)"
        fill="#c5d4dd"
      />
      <path
        id="Path_1484"
        data-name="Path 1484"
        d="M133.327,110.687l-.009,2.527L108.2,101.256l.009-2.527Z"
        transform="translate(-35.506 -19.999)"
        fill="#c5d4dd"
      />
      <g
        id="Group_221"
        data-name="Group 221"
        transform="translate(59.12 52.565)"
      >
        <path
          id="Path_1485"
          data-name="Path 1485"
          d="M114.046,96.882l-.019,5.46a.914.914,0,0,1-.237.655,1.1,1.1,0,0,1-1.275.056l-5.762-2.743a2.887,2.887,0,0,1-1.25-1.228,1.992,1.992,0,0,1-.254-.92l.019-5.46c0-.79.679-1.108,1.514-.712l5.762,2.743A2.683,2.683,0,0,1,114.046,96.882Z"
          transform="translate(-105.249 -91.821)"
          fill="#c5d4dd"
        />
        <path
          id="Path_1486"
          data-name="Path 1486"
          d="M157.525,116.467,108.219,92.99l-.009,2.526L157.525,119Z"
          transform="translate(-94.608 -88.564)"
          fill="#c5d4dd"
        />
        <path
          id="Path_1487"
          data-name="Path 1487"
          d="M133.327,106.667l-.009,2.527L108.2,97.238l.009-2.526Z"
          transform="translate(-94.626 -83.763)"
          fill="#c5d4dd"
        />
      </g>
      <g
        id="Group_222"
        data-name="Group 222"
        transform="translate(59.12 37.348)"
      >
        <path
          id="Path_1488"
          data-name="Path 1488"
          d="M114.046,92.865l-.019,5.46a.914.914,0,0,1-.237.655,1.1,1.1,0,0,1-1.275.056l-5.762-2.743a2.887,2.887,0,0,1-1.25-1.228,1.991,1.991,0,0,1-.254-.92l.019-5.46c0-.79.679-1.108,1.514-.712l5.762,2.743A2.684,2.684,0,0,1,114.046,92.865Z"
          transform="translate(-105.249 -87.804)"
          fill="#c5d4dd"
        />
        <path
          id="Path_1489"
          data-name="Path 1489"
          d="M157.525,112.446,108.219,88.973,108.21,91.5l49.315,23.481Z"
          transform="translate(-94.608 -84.545)"
          fill="#c5d4dd"
        />
        <path
          id="Path_1490"
          data-name="Path 1490"
          d="M133.327,102.649l-.009,2.527L108.2,93.222l.009-2.527Z"
          transform="translate(-94.626 -79.745)"
          fill="#c5d4dd"
        />
      </g>
    </g>
    <g
      id="Group_225"
      data-name="Group 225"
      transform="translate(121.814 22.001)"
    >
      <path
        id="Path_1491"
        data-name="Path 1491"
        d="M136.876,121.5a9.623,9.623,0,0,1-4.145-.991l-63-30c-4.075-1.94-7.138-6.321-7.126-10.192l.206-59.693c.012-3.53,2.661-6,6.442-6a9.616,9.616,0,0,1,4.142.991l63,30c4.075,1.941,7.138,6.322,7.125,10.192l-.206,59.693C143.3,119.034,140.656,121.5,136.876,121.5Z"
        transform="translate(-46.274 -14.632)"
        fill="#4c4c5e"
      />
      <path
        id="Path_1492"
        data-name="Path 1492"
        d="M150.812,53.736l-.2,59.69a3,3,0,0,1-1.59,2.876l-19.1,9.152a2.985,2.985,0,0,0,1.59-2.876l.2-59.69c.012-2.847-2.415-6.315-5.408-7.743L63.3,25.154a4.519,4.519,0,0,0-3.864-.311l19.1-9.152a4.546,4.546,0,0,1,3.864.3l63.007,30C148.4,47.421,150.824,50.889,150.812,53.736Z"
        transform="translate(-57.646 -12.529)"
        fill="#cfdee8"
      />
      <path
        id="Path_1493"
        data-name="Path 1493"
        d="M127.7,48.41c3,1.429,5.423,4.895,5.413,7.739l-.205,59.693c-.01,2.844-2.447,4-5.449,2.568l-63-30c-2.994-1.425-5.423-4.895-5.413-7.739l.205-59.693c.01-2.844,2.455-3.993,5.449-2.568Z"
        transform="translate(-59.046 -5.794)"
        fill="#e7f1f7"
      />
      <g
        id="Group_224"
        data-name="Group 224"
        transform="translate(7.843 33.392)"
      >
        <path
          id="Path_1494"
          data-name="Path 1494"
          d="M67.048,35.242c4.164,1.654,7.843,1.418,10.3-.362l10.77,11.861c-4.807,3.967-12.45,4.5-21.111.742Z"
          transform="translate(-38.287 8.422)"
          fill="#4eeaf6"
        />
        <path
          id="Path_1495"
          data-name="Path 1495"
          d="M76.919,46.207a28.159,28.159,0,0,0-9.883-9.534l.042-12.241a52.945,52.945,0,0,1,20.36,19.634Z"
          transform="translate(-38.18 -20.705)"
          fill="#3765c7"
        />
        <path
          id="Path_1496"
          data-name="Path 1496"
          d="M80.018,30.3a36.19,36.19,0,0,1,4.43,16.387c-.017,4.871-1.448,8.769-3.928,11.5L69.753,46.331a9.138,9.138,0,0,0,1.8-5.78A18.743,18.743,0,0,0,69.5,32.445Z"
          transform="translate(-29.316 -4.34)"
          fill="#af5fec"
        />
        <path
          id="Path_1497"
          data-name="Path 1497"
          d="M60.754,39.549C60.8,25.5,72.608,19.609,87.3,26.053l-.042,12.233c-7.579-3.076-13.59.089-13.615,7.4S79.591,61.864,87.166,66l-.042,12.241C72.432,70.692,60.706,53.6,60.754,39.549Z"
          transform="translate(-60.754 -23.448)"
          fill="#c82586"
        />
      </g>
    </g>
    <g
      id="Group_226"
      data-name="Group 226"
      transform="translate(41.579 122.204)"
    >
      <path
        id="Path_1498"
        data-name="Path 1498"
        d="M119.409,147.955a9.623,9.623,0,0,1-4.145-.991l-63-30c-4.075-1.94-7.138-6.322-7.126-10.192l.206-59.693c.012-3.53,2.661-6,6.442-6a9.616,9.616,0,0,1,4.142.991l63,30c4.075,1.941,7.138,6.322,7.125,10.192l-.206,59.693C125.836,145.488,123.188,147.955,119.409,147.955Z"
        transform="translate(-28.807 -41.086)"
        fill="#4c4c5e"
      />
      <path
        id="Path_1499"
        data-name="Path 1499"
        d="M133.345,80.19l-.2,59.69a3,3,0,0,1-1.59,2.876l-19.1,9.152a2.985,2.985,0,0,0,1.59-2.876l.2-59.69c.012-2.847-2.415-6.315-5.408-7.743L45.833,51.607a4.518,4.518,0,0,0-3.864-.311l19.1-9.152a4.546,4.546,0,0,1,3.864.3l63.007,30C130.93,73.875,133.357,77.343,133.345,80.19Z"
        transform="translate(-40.178 -38.983)"
        fill="#af5fec"
      />
      <path
        id="Path_1500"
        data-name="Path 1500"
        d="M110.237,74.864c3,1.429,5.423,4.895,5.413,7.739l-.205,59.693c-.01,2.844-2.447,4-5.449,2.568l-63-30c-2.994-1.425-5.423-4.895-5.413-7.739l.205-59.693c.01-2.844,2.455-3.993,5.449-2.568Z"
        transform="translate(-41.579 -32.248)"
        fill="#d178ea"
      />
      <path
        id="Path_1501"
        data-name="Path 1501"
        d="M52.107,59.046l-.064,18.307-8.792-4.186.06-18.311Z"
        transform="translate(-35.571 -2.694)"
        fill="#fff"
      />
      <path
        id="Path_1502"
        data-name="Path 1502"
        d="M55.508,55.7l-.133,38.242L46.6,89.769l.133-38.239Z"
        transform="translate(-23.532 -11.969)"
        fill="#fff"
      />
      <path
        id="Path_1503"
        data-name="Path 1503"
        d="M58.8,62.912l-.064,18.307-8.792-4.186.064-18.311Z"
        transform="translate(-11.509 8.084)"
        fill="#fff"
      />
      <path
        id="Path_1504"
        data-name="Path 1504"
        d="M62.222,59.582l-.129,38.242-8.8-4.189L53.43,55.4Z"
        transform="translate(0.529 -1.191)"
        fill="#fff"
      />
    </g>
    <g
      id="Group_227"
      data-name="Group 227"
      transform="translate(245.673 470.932)"
    >
      <path
        id="Path_1505"
        data-name="Path 1505"
        d="M136.876,184.012a9.622,9.622,0,0,1-4.145-.991l-63-30c-4.075-1.94-7.138-6.322-7.126-10.192l.206-59.693c.012-3.53,2.661-6,6.442-6a9.615,9.615,0,0,1,4.142.991l63,30c4.075,1.941,7.138,6.322,7.125,10.192l-.206,59.693C143.3,181.546,140.656,184.012,136.876,184.012Z"
        transform="translate(-46.274 -77.144)"
        fill="#4c4c5e"
      />
      <path
        id="Path_1506"
        data-name="Path 1506"
        d="M150.812,116.248l-.2,59.69a3,3,0,0,1-1.59,2.876l-19.1,9.152a2.984,2.984,0,0,0,1.59-2.876l.2-59.69c.012-2.847-2.415-6.315-5.408-7.743L63.3,87.666a4.518,4.518,0,0,0-3.864-.311l19.1-9.152a4.546,4.546,0,0,1,3.864.3l63.007,30C148.4,109.933,150.824,113.4,150.812,116.248Z"
        transform="translate(-57.646 -75.039)"
        fill="#af5fec"
      />
      <path
        id="Path_1507"
        data-name="Path 1507"
        d="M127.7,110.923c3,1.429,5.423,4.895,5.413,7.739l-.205,59.693c-.01,2.844-2.447,4-5.449,2.568l-63-30c-2.994-1.425-5.423-4.895-5.413-7.739l.205-59.693c.01-2.844,2.455-3.993,5.449-2.568Z"
        transform="translate(-59.046 -68.305)"
        fill="#c82586"
      />
    </g>
    <g
      id="Group_229"
      data-name="Group 229"
      transform="translate(61.365 225.801)"
    >
      <path
        id="Path_1508"
        data-name="Path 1508"
        d="M96.655,113.988s5.106-4.446,7.719-5.436c2.585-1,8.594-2.555,11.734-3.764,3.134-1.225,7.8-8.088,8.594-12.1.78-3.987-2.737-11.036-5.493-10.007-1.7.646-2.73,3.849-4.037,6.857-1.489,3.426-5.343,5.856-9.757,5.876a2.705,2.705,0,0,1-.552-.034c-.7-.166,1.456-5.2,2.7-6.706s1.3-5.368-.767-5.465-3.132,3.686-6.426,6.908a15.953,15.953,0,0,0-3.154,5.457c-1.734,4.508-5.441,8.237-10.224,10.867q-.535.286-1.05.623C82.43,109.335,96.655,113.988,96.655,113.988Z"
        transform="translate(96.057 -28.995)"
        fill="#fed0b5"
      />
      <path
        id="Path_1509"
        data-name="Path 1509"
        d="M70.947,84.05s-8,28.754,2.858,39.359,36.3,30.875,43.157,29.932,33.154-21.447,46.587-45.252c0,0-3.43-9.427-13.433-7.542L114.39,131.187S78.95,77.451,70.947,84.05Z"
        transform="translate(33.961 -26.471)"
        fill="#4eeaf6"
      />
      <path
        id="Path_1510"
        data-name="Path 1510"
        d="M72.645,164.268s-8,5.28-7.546,9.428a77.389,77.389,0,0,0,1.6,10.182c.457,1.32.114,18.762,1.143,18.95a10.173,10.173,0,0,0,2.515,0s.915-14.991,2.287-15.273,3.773,16.192,5.031,18.372,21.609,15,28.468,10.854S91.967,188.5,89.223,184.539,73.674,162.761,72.645,164.268Z"
        transform="translate(23.086 198.482)"
        fill="#26262e"
      />
      <path
        id="Path_1511"
        data-name="Path 1511"
        d="M99.546,173.4c-1.485,9.191-8.2,43.3-8.2,56.3,0,12.985,3.8,38.12,7.682,42.731,1.394,3.346-10.213,4.572-11.886,2.83a81.171,81.171,0,0,1-7.6-8.055,18.182,18.182,0,0,1-2.593-4.761c-2.265-6.173-7.213-15.431-6.809-21.311.418-6.415,1.882,1.035,3.346-11.433,1.485-12.468-7.968-52.148-7.968-65.651,0-13.52,32.33-26.5,36.743-25.988s4.83,9.726,4.2,11.433C106.468,149.5,101.01,164.23,99.546,173.4Z"
        transform="translate(24.671 125.653)"
        fill="#f2c0a7"
      />
      <path
        id="Path_1512"
        data-name="Path 1512"
        d="M68.612,166s-8.965,5.4-9.827,11.515-1.207,25.021-3.276,30.139,2.241,10.52,4.31,12.51,11.723,8.53,14.826,8.53,7.758-.426,8.448-5.544-.862-20.756-2.241-36.536S81.024,166.571,68.612,166Z"
        transform="translate(-13.276 203.569)"
        fill="#26262e"
      />
      <path
        id="Path_1513"
        data-name="Path 1513"
        d="M76.192,150s-10.171,9.383-12.757,26.727S62.4,220.516,61.021,226.2s-3.1,8.956-3.793,11.231-2.291,34.7.123,37.974c2.219,4.083,18.3,5.288,19.334,2.445s-1.872-23.217-1.872-31.036,5.172-30.849,9.827-39.521,15.861-39.948,19.136-46.63,3.793-11.231,1.9-14.927S77.054,141.333,76.192,150Z"
        transform="translate(-9.305 139.816)"
        fill="#fed0b5"
      />
      <path
        id="Path_1514"
        data-name="Path 1514"
        d="M59.676,125.093a10.9,10.9,0,0,0-.9,1.309c-1.775,2.937-5.312,10.815-2.371,23.635,3.815,16.63,18.259,60.226,17.714,74.384s33.52,10.337,44.42,6.742,23.982-6.292,26.979-18.652,1.635-88.991-2.18-96.182-84.035,9.2-84.035,9.2"
        transform="translate(-12.14 59.999)"
        fill="#474756"
      />
      <path
        id="Path_1515"
        data-name="Path 1515"
        d="M150.837,216.876a4.824,4.824,0,0,1-2.572,4.277c-8.344,4.846-15.663,8.881-22.125,12.226-1.15.6-2.3,1.173-3.388,1.724-40.3,20.228-44.9,11.606-55.94,7.45-13.216-4.966-7.7-16.365-6.9-25.556.648-7.433,26.726-27.454,19.825-45.682a20.718,20.718,0,0,0-3.743-6.156,94.893,94.893,0,0,1-16.019-27.3c-4.747-12.209-6.462-23.142-5.793-27.626.46-3.087,5.144-6.6,10.644-9.691,1.339-.759,2.719-1.5,4.12-2.19,2.907-1.466,5.814-2.777,8.261-3.811.46-.207.9-.379,1.317-.552.92-.4,1.757-.741,2.468-1.018.23-.086.439-.155.627-.241a2.337,2.337,0,0,1,.314-.121c.334-.138.606-.258.836-.345,2.007-.81,10.645-4.156,19.992-7.156,2.258-.725,4.559-1.431,6.817-2.07,10-2.863,22,6.481,27.112,15.442a14.765,14.765,0,0,0,1.106,2.175c17.9,29.254,4.461,32.107,2.167,34.152a1.578,1.578,0,0,0-.251.293c-.313.569-.418,3.76-.4,8.088.046,8.572.56,21.632.826,27.874a14.133,14.133,0,0,0,1.886,6.322C148.99,189.8,150.508,209.676,150.837,216.876Z"
        transform="translate(-16.58 -29.186)"
        fill="#4eeaf6"
      />
      <path
        id="Path_1516"
        data-name="Path 1516"
        d="M135.071,96.613c-.313.569-.418,3.76-.4,8.088-8.846,2.087-19.678,4.88-27.374,7.743-11.125,4.087-23.735,12.261-32.2,20.383a20.719,20.719,0,0,0-3.743-6.156,94.893,94.893,0,0,1-16.019-27.3c4.935,6.053,17.775,15.865,25.784,13.434,17.294-5.242,44.146-15.917,54.2-16.486A1.584,1.584,0,0,0,135.071,96.613Z"
        transform="translate(-11.939 9.302)"
        fill="#4eeaf6"
      />
      <path
        id="Path_1517"
        data-name="Path 1517"
        d="M54.207,119.144s5.473,4.139,6.716,6.276c1.256,2.115,3.237,7.045,4.752,9.615,1.536,2.564,9.933,6.3,14.807,6.891,4.847.579,13.337-2.434,12.045-4.69-.811-1.393-4.711-2.189-8.379-3.218-4.179-1.172-7.186-4.311-7.282-7.95a1.534,1.534,0,0,1,.033-.455c.19-.583,6.333,1.117,8.175,2.12s6.529.985,6.614-.72-4.519-2.523-8.479-5.187a22.872,22.872,0,0,0-6.668-2.513A25.2,25.2,0,0,1,63.2,111.058a11.507,11.507,0,0,0-.772-.855C59.62,107.341,54.207,119.144,54.207,119.144Z"
        transform="translate(-15.986 46.759)"
        fill="#fed0b5"
      />
      <path
        id="Path_1518"
        data-name="Path 1518"
        d="M94.527,89.915a8.548,8.548,0,0,0-10.217.955c-11.174,11.018-41.233,42.041-38.21,54.087,3.7,14.765,42.293,37.422,42.293,37.422,5.461-1.671,9.429-4.113,10.8-7.892l-29.019-30.8s33.34-26.984,33.34-39.458C103.519,97.2,98.719,92.6,94.527,89.915Z"
        transform="translate(-45.886 -12.068)"
        fill="#4eeaf6"
      />
      <path
        id="Path_1519"
        data-name="Path 1519"
        d="M116.405,229.883l-1.924,1.587-3.45,2.828s.021-.379.062-1.1c.419-8.208,2.719-60.149-5.416-76.014-1.715-3.328-2.886-6.122-3.953-8.674-1.046-2.552-1.966-4.863-3.179-7.294-3.868-7.76-10.6-16.5-33.334-36.628-.334-.293-5.186-3.276-7.926-8.139,5.04-2.535,10.059-4.587,12.673-5.622.46-.19.858-.345,1.15-.466C73.117,89.545,81.754,86.2,91.1,83.2a58.61,58.61,0,0,1,4.391,5.484c16.082,22.763,11.879,37.248,14.032,47.406.084.379.167.845.251,1.38.335,1.879.711,4.673,1.15,8.139C113.582,167.284,117.723,215.208,116.405,229.883Z"
        transform="translate(-4.921 -27.276)"
        fill="#e7f1f7"
      />
      <path
        id="Path_1520"
        data-name="Path 1520"
        d="M78.649,105.666c-3.262.931-6.42,1.9-9.2,2.9-1.046-2.552-1.966-4.863-3.179-7.294,3.848-1.311,7.633-2.6,11.23-3.742C77.833,99.406,78.21,102.2,78.649,105.666Z"
        transform="translate(27.356 12.666)"
        fill="#dce8f1"
      />
      <path
        id="Path_1521"
        data-name="Path 1521"
        d="M69.188,122.2s1.757-5.846,1.757-5.915c-.126.276-7.069.9-7.069.9s-5.207-.621-7.152-13.5a32.11,32.11,0,0,1-.335-3.518c1.339-.759,2.719-1.5,4.12-2.19,2.74,4.863,7.591,7.846,7.926,8.139,20.181,17.865,27.75,26.747,31.912,33.955Zm44.857,16.244a3.66,3.66,0,0,1-.962,1.052c-.021-.172-.063-.345-.084-.5-.084-.535-.167-1-.251-1.38-2.154-10.157,2.05-24.643-14.032-47.405a58.621,58.621,0,0,0-4.391-5.484c2.258-.725,4.559-1.431,6.817-2.07a52.478,52.478,0,0,1,10.393,8.674l-4.852,3.518,6.336,2.914S120.235,128.593,114.045,138.44Z"
        transform="translate(-8.144 -28.799)"
        fill="#4eeaf6"
      />
      <g
        id="Group_228"
        data-name="Group 228"
        transform="translate(52.366 8.573)"
      >
        <path
          id="Path_1522"
          data-name="Path 1522"
          d="M95.3,93.52c-1.506,5.828-2.99,11.657-4.5,17.5a6.828,6.828,0,0,1-1.694,3.518c-1.087,1.052-14.074,1.6-19.323-.6-8.428-3.535-13.07-10-10.331-14.416.167-.259,1-10.244,1.966-14.934a8.279,8.279,0,0,1,.983-2.828,4.124,4.124,0,0,1,2.614-1.88,7.7,7.7,0,0,1,4.015.69q11.889,4.423,23.735,8.846a4.753,4.753,0,0,1,2.489,1.57A3.321,3.321,0,0,1,95.3,93.52Z"
          transform="translate(-52.332 -45.307)"
          fill="#f2c0a7"
        />
        <path
          id="Path_1523"
          data-name="Path 1523"
          d="M63.189,70.7a57.422,57.422,0,0,0-5.822,21.979c-.466,8.243,1.015,16.758,5.993,23.917a32.371,32.371,0,0,0,23.8,13.474c4.368.311,8.961-.362,12.525-2.467,5.209-3.076,7.354-8.554,8.653-13.728a79.442,79.442,0,0,0,2.343-16.318c.169-4.43-.072-9-2.256-13.049-3.572-6.621-11.906-10.824-20.483-12.4s-17.5-.926-26.249-.266"
          transform="translate(-57.287 -70.699)"
          fill="#fed0b5"
        />
      </g>
      <path
        id="Path_1524"
        data-name="Path 1524"
        d="M85.19,147.726S57.3,140.559,55.178,109.8,77.017,64.219,97.7,69.478s23.772,14.5,25.7,21.994,1.546,20.719,0,22.312-17.394,29.325-24.352,27.731c0,0-.193-8.606,2.319-12.272,0,0,8.89,2.869,11.21-1.434s6.021-15.8,5.441-18.989.357-3.8.357-5.4.513-3.988-.646-6.06S92.092,89.719,92.092,86.053,70.694,126.051,85.19,147.726Z"
        transform="translate(-12.973 -68.436)"
        fill="#7f5341"
      />
    </g>
    <g
      id="Group_245"
      data-name="Group 245"
      transform="translate(335.596 596.565)"
    >
      <path
        id="Path_1725"
        data-name="Path 1725"
        d="M171.987,185.569l-.017,5.843c0,1.321-1.062,2.627-3.151,3.632l-6.145,2.943.035-5.843,6.128-2.943C170.944,188.194,171.987,186.876,171.987,185.569Z"
        transform="translate(99.55 -112.647)"
        fill="#474756"
      />
      <path
        id="Path_1726"
        data-name="Path 1726"
        d="M285.992,242.528l-.023,5.852L128.364,173.342l.023-5.848Z"
        transform="translate(-23.739 -163.038)"
        fill="#3765c7"
      />
      <path
        id="Path_1727"
        data-name="Path 1727"
        d="M292.063,235.554c4.246,2.021,4.268,5.292.05,7.313l-6.14,2.942-157.6-75.035,6.14-2.942a20.11,20.11,0,0,1,15.31,0Z"
        transform="translate(-23.723 -166.318)"
        fill="#545466"
      />
      <path
        id="Path_1728"
        data-name="Path 1728"
        d="M139.656,168.153c1.848.88,1.858,2.306.024,3.185a8.758,8.758,0,0,1-6.67,0c-1.846-.879-1.855-2.3-.019-3.185A8.754,8.754,0,0,1,139.656,168.153Z"
        transform="translate(-12.041 -163.038)"
        fill="#e22951"
      />
      <path
        id="Path_1729"
        data-name="Path 1729"
        d="M141.794,169.386c1.848.88,1.858,2.306.024,3.185a8.758,8.758,0,0,1-6.67,0c-1.846-.879-1.855-2.3-.019-3.185A8.755,8.755,0,0,1,141.794,169.386Z"
        transform="translate(-4.358 -159.601)"
        fill="#ffb839"
      />
      <path
        id="Path_1730"
        data-name="Path 1730"
        d="M143.933,170.62c1.848.88,1.858,2.306.024,3.185a8.758,8.758,0,0,1-6.67,0c-1.846-.879-1.855-2.3-.019-3.185A8.755,8.755,0,0,1,143.933,170.62Z"
        transform="translate(3.328 -156.16)"
        fill="#75d178"
      />
      <g id="Group_242" data-name="Group 242" transform="translate(0 4.456)">
        <path
          id="Path_1731"
          data-name="Path 1731"
          d="M244.546,187.3l-.023,5.852L139.9,243.291l.018-5.848Z"
          transform="translate(17.707 -112.269)"
          fill="#c5d4dd"
        />
        <path
          id="Path_1732"
          data-name="Path 1732"
          d="M263.211,255.768l-.018,5.848L105.587,186.582l.018-5.852Z"
          transform="translate(-105.587 -130.594)"
          fill="#cfdee8"
        />
        <path
          id="Path_1733"
          data-name="Path 1733"
          d="M367.826,242.528,263.2,292.668,105.591,217.63,210.22,167.494Z"
          transform="translate(-105.573 -167.494)"
          fill="#e7f1f7"
        />
      </g>
      <g
        id="Group_244"
        data-name="Group 244"
        transform="translate(25.875 18.357)"
      >
        <path
          id="Path_1734"
          data-name="Path 1734"
          d="M185.211,196.244l-31.594,15.144L111.22,191.2l31.594-15.144Z"
          transform="translate(-111.22 -157.517)"
          fill="#3765c7"
        />
        <path
          id="Path_1735"
          data-name="Path 1735"
          d="M193.636,191.35l-31.594,15.136-42.4-20.185,31.589-15.136Z"
          transform="translate(-80.945 -171.164)"
          fill="#c82586"
        />
        <path
          id="Path_1736"
          data-name="Path 1736"
          d="M230.749,221.5l-4.869,2.333-90.523-43.1,4.869-2.333Z"
          transform="translate(-24.485 -150.997)"
          fill="#c5d4dd"
        />
        <path
          id="Path_1737"
          data-name="Path 1737"
          d="M166.195,203.058l-4.874,2.333-37.6-17.9,4.878-2.337Z"
          transform="translate(-66.288 -132.153)"
          fill="#c5d4dd"
        />
        <path
          id="Path_1738"
          data-name="Path 1738"
          d="M222.808,226.113l-4.874,2.333-90.523-43.1,4.869-2.333Z"
          transform="translate(-53.035 -138.125)"
          fill="#c5d4dd"
        />
        <g
          id="Group_243"
          data-name="Group 243"
          transform="translate(93.936 35.515)"
        >
          <path
            id="Path_1739"
            data-name="Path 1739"
            d="M174.136,198.441l-4.869,2.333-37.6-17.9,4.869-2.333Z"
            transform="translate(-131.67 -180.54)"
            fill="#c5d4dd"
          />
        </g>
      </g>
    </g>
  </g>
</svg>
