<svg id="Component_16_1" data-name="Component 16 – 1" xmlns="http://www.w3.org/2000/svg" xmlns:xlink="http://www.w3.org/1999/xlink" width="125" height="113" viewBox="0 0 125 113">
  <defs>
    <linearGradient id="linear-gradient" x1="0.5" x2="0.805" y2="0.626" gradientUnits="objectBoundingBox">
      <stop offset="0" stop-color="#fe1f4e"/>
      <stop offset="0.637" stop-color="#d95672"/>
      <stop offset="1" stop-color="#9b09c9" stop-opacity="0.976"/>
    </linearGradient>
  </defs>
  <g id="Group_12" data-name="Group 12">
    <path id="Path_88" data-name="Path 88" d="M68.439,48.129Zm34.832,6.515q-1.1-1.02-2.323-2.045.854-.727,1.652-1.454c10.051-9.155,14.293-18.336,10.362-23.855-3.769-5.292-14.98-6.869-29.016-4.657q-2.074.329-4.125.742-.393-1.1-.835-2.182C74.225,9.562,66.533,2,58.672,2,51.133,2,43.848,9.089,39.2,20.05q-.686,1.622-1.269,3.271-1.371-.273-2.754-.5C20.368,20.353,8.441,21.976,4.518,27.5c-3.762,5.3.172,13.952,9.567,22.691q1.4,1.3,2.874,2.536c-1.161.969-2.259,1.938-3.284,2.9C4.508,64.242.8,72.757,4.555,78.03c3.879,5.447,15.638,7.227,29.952,4.944q1.74-.28,3.461-.629.63,1.784,1.383,3.536c4.627,10.742,11.872,17.6,19.384,17.6,7.758,0,15.534-7.372,20.246-18.564.372-.884.724-1.8,1.058-2.749q2.223.448,4.474.8c13.791,2.115,24.739.452,28.487-4.825,3.871-5.451-.12-14.593-9.729-23.491ZM9.152,29.662c2.415-3.4,12.163-4.726,24.949-2.6q1.226.2,2.493.457a85.811,85.811,0,0,0-2.637,13.586A129.753,129.753,0,0,0,20.789,49.7q-1.374-1.151-2.674-2.359h0C10.066,39.854,6.885,32.853,9.152,29.662ZM33.478,58.726c-3.2-1.962-6.165-3.971-8.861-5.992,2.694-2.009,5.665-4.011,8.854-5.968q-.172,2.989-.17,5.983t.177,5.977Zm0,19.994a55.677,55.677,0,0,1-16.522.473,12,12,0,0,1-7.767-3.33c-2.279-3.2.7-10.036,8.539-17.4q1.478-1.385,3.054-2.7a127.212,127.212,0,0,0,13.188,8.626,87.229,87.229,0,0,0,2.668,13.76q-1.571.318-3.16.574ZM77.92,37.929q-3.149-1.608-6.375-3.114-3.175-1.482-6.427-2.852C68.829,30.7,72.478,29.618,76,28.738a76.593,76.593,0,0,1,1.92,9.192ZM44.257,21.459c3.982-9.392,9.874-15.123,14.418-15.124,4.839,0,11.125,6.181,15.236,16.224q.4.982.757,1.975a147.712,147.712,0,0,0-15.817,4.928A144.455,144.455,0,0,0,43.085,24.48Q43.625,22.958,44.257,21.459Zm-2.506,7.224q5.511,1.406,10.826,3.257Q46,34.693,39.763,37.935A79.358,79.358,0,0,1,41.751,28.684Zm-1.979,38.87q3.11,1.614,6.312,3.109,3.266,1.524,6.618,2.92Q47.353,75.5,41.783,76.956A80.584,80.584,0,0,1,39.772,67.553Zm34.147,15.96A35.078,35.078,0,0,1,66.17,95.352h0a11.59,11.59,0,0,1-7.438,3.79c-4.558,0-10.375-5.505-14.332-14.691q-.7-1.629-1.286-3.288a144.364,144.364,0,0,0,15.83-5.123A150.045,150.045,0,0,0,74.886,81q-.446,1.263-.967,2.508Zm2.267-6.719c-3.563-.893-7.264-1.992-11.029-3.275q3.184-1.358,6.414-2.869,3.314-1.552,6.46-3.181a76.156,76.156,0,0,1-1.845,9.325ZM78.979,52.73q.007,4.622-.356,9.237C75.54,63.659,72.284,65.311,68.9,66.9s-6.715,3.03-9.994,4.343q-5.175-2.01-10.151-4.333Q43.8,64.6,39.084,61.989q-.432-4.613-.435-9.243h0q0-4.627.425-9.244c3.083-1.707,6.315-3.357,9.656-4.921,3.357-1.571,6.741-3.016,10.106-4.325q5.111,2.014,10.038,4.316,4.944,2.3,9.7,4.864.408,4.64.408,9.294Zm5.988-25.84c12.026-1.9,21.093-.621,23.364,2.569,2.42,3.4-1.048,10.9-9.725,18.806h0q-.719.654-1.492,1.314a125.41,125.41,0,0,0-13.419-8.564,83.956,83.956,0,0,0-2.538-13.44q1.943-.387,3.81-.684ZM84.154,46.6q4.763,2.819,9.146,6.027-4.358,3.256-9.118,6.131.146-3.013.143-6.03,0-3.065-.172-6.128Zm24.21,29.372C106.09,79.174,97.3,80.51,85.506,78.7q-2.027-.31-4.161-.739A83.919,83.919,0,0,0,83.77,64.355a123.955,123.955,0,0,0,13.376-8.706q1.1.93,2.1,1.851h0a36.6,36.6,0,0,1,8.782,11.355,7.426,7.426,0,0,1,.336,7.117Z" transform="translate(3.318 3.622)" fill="url(#linear-gradient)"/>
    <ellipse id="Ellipse_7" data-name="Ellipse 7" cx="8" cy="5.5" rx="8" ry="5.5" transform="translate(0 31)" fill="url(#linear-gradient)"/>
    <ellipse id="Ellipse_8" data-name="Ellipse 8" cx="7.5" cy="5.5" rx="7.5" ry="5.5" transform="translate(54 102)" fill="url(#linear-gradient)"/>
    <ellipse id="Ellipse_9" data-name="Ellipse 9" cx="7.5" cy="5.5" rx="7.5" ry="5.5" transform="translate(54)" fill="url(#linear-gradient)"/>
    <ellipse id="Ellipse_10" data-name="Ellipse 10" cx="7.5" cy="5.5" rx="7.5" ry="5.5" transform="translate(110 26)" fill="url(#linear-gradient)"/>
    <ellipse id="Ellipse_11" data-name="Ellipse 11" cx="7.5" cy="5" rx="7.5" ry="5" transform="translate(110 75)" fill="url(#linear-gradient)"/>
    <ellipse id="Ellipse_12" data-name="Ellipse 12" cx="7.5" cy="5" rx="7.5" ry="5" transform="translate(0 75)" fill="url(#linear-gradient)"/>
  </g>
  <text id="K" transform="translate(53 69)" fill="#fe1f4e" font-size="34" font-family="LucidaSans-Typewriter, Lucida Sans Typewriter" font-style="italic"><tspan x="0" y="0">K</tspan></text>
</svg>
