<svg
  xmlns="http://www.w3.org/2000/svg"
  xmlns:xlink="http://www.w3.org/1999/xlink"
  width="79.323"
  height="53.305"
  viewBox="0 0 79.323 53.305"
>
  <defs>
    <filter
      id="Shape"
      x="0"
      y="0"
      width="79.323"
      height="53.305"
      filterUnits="userSpaceOnUse"
    >
      <feOffset dx="6" dy="3" input="SourceAlpha" />
      <feGaussianBlur stdDeviation="3" result="blur" />
      <feFlood flood-color="#060224" flood-opacity="0.388" />
      <feComposite operator="in" in2="blur" />
      <feComposite in="SourceGraphic" />
    </filter>
  </defs>
  <g id="Octicons" transform="translate(3 6)">
    <g id="quote">
      <g transform="matrix(1, 0, 0, 1, -3, -6)" filter="url(#Shape)">
        <path
          id="Shape-2"
          data-name="Shape"
          d="M28.683,6.787C17.368,11.134,11.873,15.62,11.873,23.116a10.6,10.6,0,0,1,2.049-.139c5.913,0,11.641,2.4,11.641,6.715,0,4.486-4.8,7.273-11.641,7.273C5.075,36.965,0,32.73,0,25.122,0,14.534,8.148,6.926,23.374,1.66Zm32.594,0C49.962,11.134,44.467,15.62,44.467,23.116a10.6,10.6,0,0,1,2.049-.139c5.913,0,11.641,2.4,11.641,6.715,0,4.486-4.8,7.273-11.641,7.273-8.8,0-13.876-4.235-13.876-11.843,0-10.589,8.148-18.2,23.374-23.462l5.308,5.127Z"
          transform="translate(3 4.34)"
          fill="#c82586"
          fill-rule="evenodd"
        />
      </g>
    </g>
  </g>
</svg>
