<svg
  xmlns="http://www.w3.org/2000/svg"
  xmlns:xlink="http://www.w3.org/1999/xlink"
  width="68.282"
  height="50.6"
  viewBox="0 0 68.282 50.6"
>
  <defs>
    <filter
      id="Shape"
      x="0"
      y="0"
      width="68.282"
      height="50.6"
      filterUnits="userSpaceOnUse"
    >
      <feOffset dx="6" dy="3" input="SourceAlpha" />
      <feGaussianBlur stdDeviation="3" result="blur" />
      <feFlood flood-color="#060224" flood-opacity="0.388" />
      <feComposite operator="in" in2="blur" />
      <feComposite in="SourceGraphic" />
    </filter>
  </defs>
  <g id="Octicons" transform="translate(3 6)">
    <g id="quote" transform="translate(0 0)">
      <g transform="matrix(1, 0, 0, 1, -3, -6)" filter="url(#Shape)">
        <path
          id="Shape-2"
          data-name="Shape"
          d="M26.764,6.394c9.278,4.014,13.783,8.156,13.783,15.078a7.739,7.739,0,0,0-1.68-.129c-4.849,0-9.545,2.213-9.545,6.2,0,4.143,3.932,6.716,9.545,6.716,7.254,0,11.416-3.911,11.416-10.935,0-9.777-6.681-16.8-19.166-21.665Zm-26.725,0c9.278,4.014,13.783,8.156,13.783,15.078a7.739,7.739,0,0,0-1.68-.129c-4.849,0-9.545,2.213-9.545,6.2,0,4.143,3.932,6.716,9.545,6.716,7.216,0,11.377-3.911,11.377-10.935,0-9.777-6.681-16.8-19.166-21.665L0,6.394Z"
          transform="translate(3 4.34)"
          fill="#4eeaf6"
          fill-rule="evenodd"
        />
      </g>
    </g>
  </g>
</svg>
