<svg
  xmlns="http://www.w3.org/2000/svg"
  width="131.4"
  height="123.468"
  viewBox="0 0 131.4 123.468"
>
  <g
    id="female-developer-doing-programming_1_"
    data-name="female-developer-doing-programming (1)"
    transform="translate(-73.046 -66.966)"
  >
    <ellipse
      id="Ellipse_62"
      data-name="Ellipse 62"
      cx="30.886"
      cy="2.797"
      rx="30.886"
      ry="2.797"
      transform="translate(102.012 180.869)"
      fill="#f2f2f2"
    />
    <ellipse
      id="Ellipse_63"
      data-name="Ellipse 63"
      cx="8.721"
      cy="2.797"
      rx="8.721"
      ry="2.797"
      transform="translate(163.627 179.769)"
      fill="#f2f2f2"
    />
    <ellipse
      id="Ellipse_64"
      data-name="Ellipse 64"
      cx="8.721"
      cy="2.797"
      rx="8.721"
      ry="2.797"
      transform="translate(184.459 184.795)"
      fill="#f2f2f2"
    />
    <ellipse
      id="Ellipse_65"
      data-name="Ellipse 65"
      cx="12.953"
      cy="2.746"
      rx="12.953"
      ry="2.746"
      transform="translate(76.26 182.438)"
      fill="#f2f2f2"
    />
    <path
      id="Path_1741"
      data-name="Path 1741"
      d="M148.2,369.1c.036.457.089.956.166,1.509.875,6.244,2.1,13.144,2.1,13.144a55.042,55.042,0,0,0,2.626-13.364c.263-6.461,3.764-8.98,2.625-13.581-1.086-4.393-1.853-10.113-1.92-10.621,0-.022-.005-.036-.005-.036s-4.2,7.261-4.2,12.956C149.6,364.3,147.851,364.4,148.2,369.1Z"
      transform="translate(-62.019 -218.293)"
      fill="#41397c"
    />
    <path
      id="Path_1742"
      data-name="Path 1742"
      d="M148.2,369.1a38.826,38.826,0,0,0,2.846,4.305c-1.36-2.485-.941-6,.419-8.485,1.02-1.863,2.556-3.461,2.805-5.7a12.991,12.991,0,0,0-.335-3.587,24.424,24.424,0,0,1-.138-9.45c0-.022-.005-.036-.005-.036s-4.2,7.261-4.2,12.956C149.6,364.3,147.851,364.4,148.2,369.1Z"
      transform="translate(-62.019 -218.293)"
      fill="#498b90"
    />
    <path
      id="Path_1743"
      data-name="Path 1743"
      d="M111.552,396.717s0,0,0,0a11.167,11.167,0,0,0,.254,1.809c1.313,5.608,8.84,12.027,8.84,12.027a.048.048,0,0,0,0-.011c-.789-10.288-6.737-13.791-5.775-21.253a21.044,21.044,0,0,0-3.061-13.344C113.858,380.79,111.143,390.705,111.552,396.717Z"
      transform="translate(-31.76 -241.589)"
      fill="#41397c"
    />
    <path
      id="Path_1744"
      data-name="Path 1744"
      d="M111.766,471.184a11.168,11.168,0,0,0,.254,1.809c1.313,5.608,8.84,12.027,8.84,12.027a.048.048,0,0,0,0-.011,13.526,13.526,0,0,0-4.567-7.764C112.818,474.144,111.952,471.831,111.766,471.184Z"
      transform="translate(-31.972 -316.052)"
      fill="#352d72"
    />
    <path
      id="Path_1745"
      data-name="Path 1745"
      d="M175.557,317.172s4.9,17.964,0,29.136a157.252,157.252,0,0,0-6.915,18.292,40.359,40.359,0,0,1,2.013-16.868C173.719,339.627,175.207,324.511,175.557,317.172Z"
      transform="translate(-78.792 -195.632)"
      fill="#5dadb3"
    />
    <path
      id="Path_1746"
      data-name="Path 1746"
      d="M122.26,449.248s4.989,2.848,4.464,12.049.525,11.5.525,11.5l2.363-6.353s2.1-8.106-1.838-14.9Z"
      transform="translate(-40.637 -298.901)"
      fill="#498b90"
    />
    <path
      id="Path_1747"
      data-name="Path 1747"
      d="M73.046,346.184s3.5,1.424,3.764,7.448-.263,11.939,4.814,15.006,9.278,6.791,7.352,17.2c0,0,2.538-7.339-1.751-17.2s-2.93-7.12-5.842-10.3S76.634,345.527,73.046,346.184Z"
      transform="translate(0 -218.292)"
      fill="#5babb1"
    />
    <path
      id="Path_1748"
      data-name="Path 1748"
      d="M177.782,375.949s2.329,10.043-.412,15.988-5.671,14.974-6.238,18.621-1.512,1.163-1.512,1.163-3.348-5.221,2.619-13.808C178.93,388.282,177.782,375.949,177.782,375.949Z"
      transform="translate(-78.969 -241.589)"
      fill="#498b90"
    />
    <path
      id="Path_1749"
      data-name="Path 1749"
      d="M133.422,513.036v14.73c0,4.144-2.684,7.5-6,7.5h-5.339c-3.311,0-6-3.359-6-7.5v-14.73Z"
      transform="translate(-35.544 -348.775)"
      fill="#e662b1"
    />
    <path
      id="Path_1750"
      data-name="Path 1750"
      d="M254.67,148.034c0-2.384-1.543-4.317-3.448-4.317H168.9c-1.9,0-3.449,1.932-3.45,4.317v65.551H254.67Z"
      transform="translate(-76.3 -60.011)"
      fill="#060224"
    />
    <path
      id="Path_1751"
      data-name="Path 1751"
      d="M165.452,464.044v11.43c0,2.383,1.544,4.315,3.449,4.315h82.321c1.905,0,3.449-1.933,3.448-4.316V464.044Z"
      transform="translate(-76.301 -310.469)"
      fill="#e2e0e2"
    />
    <path
      id="Path_1752"
      data-name="Path 1752"
      d="M182.583,162H264.9a.644.644,0,0,1,.561.7v60.521a.644.644,0,0,1-.561.7h-82.32a.644.644,0,0,1-.561-.7V162.706a.644.644,0,0,1,.561-.7Z"
      transform="translate(-89.982 -74.308)"
      fill="#fff"
    />
    <rect
      id="Rectangle_537"
      data-name="Rectangle 537"
      width="61.853"
      height="61.926"
      transform="translate(102.834 87.695)"
      fill="#f3b3f4"
    />
    <rect
      id="Rectangle_538"
      data-name="Rectangle 538"
      width="24.269"
      height="8.156"
      transform="translate(121.626 169.321)"
      fill="#cccacc"
    />
    <rect
      id="Rectangle_539"
      data-name="Rectangle 539"
      width="24.269"
      height="2.223"
      transform="translate(121.626 169.321)"
      fill="#999899"
    />
    <path
      id="Path_1753"
      data-name="Path 1753"
      d="M333.27,573.63H296.885c-2.347,0-4.25,2.381-4.25,5.318h44.884c0-2.937-1.9-5.318-4.25-5.318Z"
      transform="translate(-181.317 -396.153)"
      fill="#e2e0e2"
    />
    <path
      id="Path_1777"
      data-name="Path 1777"
      d="M2.185-.244A1.68,1.68,0,0,1,4.126,1.7,2.879,2.879,0,0,1,1.7,4.126,1.68,1.68,0,0,1-.244,2.185,2.879,2.879,0,0,1,2.185-.244Z"
      transform="translate(131.016 161.448) rotate(-45)"
      fill="#f2f2f2"
    />
    <rect
      id="Rectangle_540"
      data-name="Rectangle 540"
      width="58.5"
      height="82.655"
      transform="translate(104.511 66.966)"
      fill="#dee8e9"
    />
    <rect
      id="Rectangle_541"
      data-name="Rectangle 541"
      width="14.063"
      height="1.782"
      transform="translate(108.49 72.086)"
      fill="#a5e6eb"
    />
    <rect
      id="Rectangle_542"
      data-name="Rectangle 542"
      width="8.558"
      height="1.782"
      transform="translate(124.569 72.086)"
      fill="#fff"
    />
    <rect
      id="Rectangle_543"
      data-name="Rectangle 543"
      width="8.558"
      height="1.782"
      transform="translate(136.062 72.086)"
      fill="#ff0098"
    />
    <rect
      id="Rectangle_544"
      data-name="Rectangle 544"
      width="23.744"
      height="1.782"
      transform="translate(108.49 76.836)"
      fill="#ff0098"
    />
    <rect
      id="Rectangle_545"
      data-name="Rectangle 545"
      width="11.296"
      height="1.782"
      transform="translate(134.251 76.836)"
      fill="#a5e6eb"
    />
    <rect
      id="Rectangle_546"
      data-name="Rectangle 546"
      width="11.988"
      height="1.782"
      transform="translate(147.195 76.836)"
      fill="#fff"
    />
    <rect
      id="Rectangle_547"
      data-name="Rectangle 547"
      width="17.52"
      height="1.782"
      transform="translate(108.49 81.587)"
      fill="#fff"
    />
    <rect
      id="Rectangle_548"
      data-name="Rectangle 548"
      width="7.839"
      height="1.782"
      transform="translate(128.027 81.587)"
      fill="#a5e6eb"
    />
    <rect
      id="Rectangle_549"
      data-name="Rectangle 549"
      width="7.839"
      height="1.782"
      transform="translate(139.855 81.587)"
      fill="#ff0098"
    />
    <rect
      id="Rectangle_550"
      data-name="Rectangle 550"
      width="20.286"
      height="1.782"
      transform="translate(108.49 86.338)"
      fill="#4eeaf6"
    />
    <rect
      id="Rectangle_551"
      data-name="Rectangle 551"
      width="14.131"
      height="1.782"
      transform="translate(142.863 86.338)"
      fill="#a5e6eb"
    />
    <rect
      id="Rectangle_552"
      data-name="Rectangle 552"
      width="8.352"
      height="1.782"
      transform="translate(131.907 86.338)"
      fill="#fff"
    />
    <rect
      id="Rectangle_553"
      data-name="Rectangle 553"
      width="11.296"
      height="1.782"
      transform="translate(108.49 91.089)"
      fill="#a5e6eb"
    />
    <rect
      id="Rectangle_554"
      data-name="Rectangle 554"
      width="11.184"
      height="1.782"
      transform="translate(121.803 91.089)"
      fill="#fff"
    />
    <rect
      id="Rectangle_555"
      data-name="Rectangle 555"
      width="8.549"
      height="1.782"
      transform="translate(134.265 91.089)"
      fill="#a5e6eb"
    />
    <rect
      id="Rectangle_556"
      data-name="Rectangle 556"
      width="6.792"
      height="1.782"
      transform="translate(144.287 91.089)"
      fill="#ff0098"
    />
    <rect
      id="Rectangle_557"
      data-name="Rectangle 557"
      width="33.426"
      height="1.782"
      transform="translate(108.49 95.84)"
      fill="#a5e6eb"
    />
    <rect
      id="Rectangle_558"
      data-name="Rectangle 558"
      width="9.913"
      height="1.782"
      transform="translate(143.933 95.84)"
      fill="#fff"
    />
    <rect
      id="Rectangle_559"
      data-name="Rectangle 559"
      width="27.202"
      height="1.782"
      transform="translate(130.793 100.591)"
      fill="#a5e6eb"
    />
    <rect
      id="Rectangle_560"
      data-name="Rectangle 560"
      width="20.286"
      height="1.782"
      transform="translate(135.727 105.341)"
      fill="#fff"
    />
    <rect
      id="Rectangle_561"
      data-name="Rectangle 561"
      width="20.286"
      height="1.782"
      transform="translate(108.49 110.092)"
      fill="#ff0098"
    />
    <rect
      id="Rectangle_562"
      data-name="Rectangle 562"
      width="25.127"
      height="1.782"
      transform="translate(108.49 114.843)"
      fill="#a5e6eb"
    />
    <rect
      id="Rectangle_563"
      data-name="Rectangle 563"
      width="9.217"
      height="1.782"
      transform="translate(135.473 114.843)"
      fill="#fff"
    />
    <rect
      id="Rectangle_564"
      data-name="Rectangle 564"
      width="9.217"
      height="1.782"
      transform="translate(146.729 114.843)"
      fill="#ff0098"
    />
    <rect
      id="Rectangle_565"
      data-name="Rectangle 565"
      width="35.894"
      height="1.782"
      transform="translate(122.495 119.594)"
      fill="#a5e6eb"
    />
    <rect
      id="Rectangle_566"
      data-name="Rectangle 566"
      width="33.314"
      height="1.782"
      transform="translate(125.075 124.345)"
      fill="#fff"
    />
    <rect
      id="Rectangle_567"
      data-name="Rectangle 567"
      width="20.286"
      height="1.782"
      transform="translate(108.49 129.096)"
      fill="#a5e6eb"
    />
    <rect
      id="Rectangle_568"
      data-name="Rectangle 568"
      width="14.063"
      height="1.782"
      transform="translate(108.49 133.846)"
      fill="#fff"
    />
    <rect
      id="Rectangle_569"
      data-name="Rectangle 569"
      width="8.53"
      height="1.782"
      transform="translate(124.569 133.846)"
      fill="#a5e6eb"
    />
    <rect
      id="Rectangle_570"
      data-name="Rectangle 570"
      width="8.53"
      height="1.782"
      transform="translate(136.864 133.846)"
      fill="#ff0098"
    />
    <rect
      id="Rectangle_571"
      data-name="Rectangle 571"
      width="18.212"
      height="1.782"
      transform="translate(108.49 138.597)"
      fill="#ff0098"
    />
    <rect
      id="Rectangle_572"
      data-name="Rectangle 572"
      width="18.212"
      height="1.782"
      transform="translate(142.872 138.597)"
      fill="#a5e6eb"
    />
    <rect
      id="Rectangle_573"
      data-name="Rectangle 573"
      width="12.679"
      height="1.782"
      transform="translate(128.719 138.597)"
      fill="#fff"
    />
    <rect
      id="Rectangle_574"
      data-name="Rectangle 574"
      width="20.286"
      height="1.782"
      transform="translate(108.49 143.348)"
      fill="#a5e6eb"
    />
    <rect
      id="Rectangle_575"
      data-name="Rectangle 575"
      width="7.147"
      height="1.782"
      transform="translate(130.793 143.348)"
      fill="#a5e6eb"
    />
    <rect
      id="Rectangle_576"
      data-name="Rectangle 576"
      width="7.147"
      height="1.782"
      transform="translate(140.872 143.348)"
      fill="#fff"
    />
    <path
      id="Path_1754"
      data-name="Path 1754"
      d="M126.013,112.675h2.869v-5.532h-2.868a13.99,13.99,0,0,0-1.225-3.7l2.028-2.538-3.126-3.912-2.028,2.538A8.763,8.763,0,0,0,118.706,98v-3.59h-4.421V98a8.764,8.764,0,0,0-2.957,1.532L109.3,96.993l-3.126,3.912,2.028,2.538a13.986,13.986,0,0,0-1.225,3.7H104.11v5.532h2.868a13.986,13.986,0,0,0,1.225,3.7l-2.028,2.538,3.126,3.912,2.028-2.538a8.764,8.764,0,0,0,2.957,1.533v3.59h4.421v-3.59a8.763,8.763,0,0,0,2.957-1.533l2.028,2.538,3.126-3.912-2.028-2.538A13.986,13.986,0,0,0,126.013,112.675ZM111.7,109.909c0-3.317,2.148-6.005,4.8-6.005s4.8,2.689,4.8,6.005-2.148,6.005-4.8,6.005-4.8-2.689-4.8-6.005Z"
      transform="translate(-25.65 -21.457)"
      fill="#cd63a2"
    />
    <path
      id="Path_1755"
      data-name="Path 1755"
      d="M716.036,150.645h1.513v-2.919h-1.513a7.379,7.379,0,0,0-.646-1.952l1.07-1.339-1.649-2.064-1.07,1.339a4.623,4.623,0,0,0-1.56-.809v-1.894h-2.332V142.9a4.623,4.623,0,0,0-1.56.809l-1.07-1.339-1.649,2.064,1.07,1.339a7.382,7.382,0,0,0-.646,1.952H704.48v2.919h1.513a7.38,7.38,0,0,0,.646,1.952l-1.07,1.339L707.219,156l1.07-1.339a4.624,4.624,0,0,0,1.56.809v1.894h2.332v-1.894a4.624,4.624,0,0,0,1.56-.809l1.07,1.339,1.649-2.064-1.07-1.339A7.377,7.377,0,0,0,716.036,150.645Zm-7.553-1.459c0-1.75,1.134-3.168,2.532-3.168s2.532,1.419,2.532,3.168-1.134,3.168-2.532,3.168-2.532-1.419-2.532-3.169Z"
      transform="translate(-521.381 -57.892)"
      fill="#e2e0e2"
    />
    <path
      id="Path_1756"
      data-name="Path 1756"
      d="M751.656,226.8h.831v-1.6h-.831a4.051,4.051,0,0,0-.355-1.071l.587-.735-.905-1.133-.587.735a2.537,2.537,0,0,0-.856-.444V221.51h-1.28v1.039a2.538,2.538,0,0,0-.856.444l-.587-.735-.9,1.133.587.735a4.051,4.051,0,0,0-.355,1.071h-.83v1.6h.83a4.051,4.051,0,0,0,.355,1.071l-.587.735.905,1.133L747.4,229a2.537,2.537,0,0,0,.856.444v1.039h1.28v-1.039A2.537,2.537,0,0,0,750.4,229l.587.735.905-1.133-.587-.735a4.048,4.048,0,0,0,.355-1.071Zm-4.145-.8a1.425,1.425,0,1,1,1.389,1.739A1.594,1.594,0,0,1,747.511,226Z"
      transform="translate(-555.098 -120.836)"
      fill="#4dbbc4"
    />
    <path
      id="Path_1757"
      data-name="Path 1757"
      d="M639.241,228.046h7.737a1.737,1.737,0,0,1,1.514,1.895v8.943a1.737,1.737,0,0,1-1.514,1.895h-7.737a1.737,1.737,0,0,1-1.514-1.895v-8.943a1.737,1.737,0,0,1,1.514-1.895Z"
      transform="translate(-466.262 -125.946)"
      fill="#fe86ff"
    />
    <path
      id="Path_1758"
      data-name="Path 1758"
      d="M648.346,250.652l-2.035-2.547,2.035-2.547.3.376-1.734,2.17,1.734,2.17Z"
      transform="translate(-473.35 -139.639)"
      fill="#fff"
    />
    <path
      id="Path_1759"
      data-name="Path 1759"
      d="M677.8,250.652l-.3-.376,1.735-2.17-1.734-2.17.3-.376,2.035,2.547Z"
      transform="translate(-499.105 -139.639)"
      fill="#fff"
    />
    <path
      id="Path_1778"
      data-name="Path 1778"
      d="M0,.9,6.357.441,6.319.881l-6.357.462Z"
      transform="translate(174.822 111.05) rotate(-67.68)"
      fill="#fff"
    />
    <rect
      id="Rectangle_578"
      data-name="Rectangle 578"
      width="60.089"
      height="1.457"
      transform="translate(144.356 151.217)"
      fill="#ed9bee"
    />
    <path
      id="Path_1760"
      data-name="Path 1760"
      d="M521.157,357.851h11.016a1.582,1.582,0,0,1,1.417,1.129l6.889,18.562h-12.89l-6.939-18.7a.854.854,0,0,1,.035-.672A.544.544,0,0,1,521.157,357.851Z"
      transform="translate(-369.548 -227.439)"
      fill="#a5e6eb"
    />
    <path
      id="Path_1761"
      data-name="Path 1761"
      d="M564.181,391.327c-.558-1.613-1.673-2.562-2.49-2.12s-1.026,2.109-.467,3.723,1.673,2.562,2.49,2.12S564.739,392.941,564.181,391.327Zm-3.471,10.647a1.018,1.018,0,0,0,.887,1.11h24.956a1.018,1.018,0,0,0,.887-1.11Z"
      transform="translate(-402.668 -251.871)"
      fill="#fecdfe"
    />
    <path
      id="Path_1762"
      data-name="Path 1762"
      d="M574.044,448.131H560.71a1.018,1.018,0,0,0,.887,1.11h13.557A1.211,1.211,0,0,1,574.044,448.131Z"
      transform="translate(-402.668 -298.027)"
      fill="#3d2fa3"
    />
    <path
      id="Path_1763"
      data-name="Path 1763"
      d="M718.242,320.725a3.993,3.993,0,0,1,1.354-1.779c1.221-1.057,2.647-2.084,4.1-1.732,1.555.376,2.6,2.19,3.317,3.957s1.333,3.719,2.605,4.9c.814.755,1.825,1.114,2.66,1.832a9.491,9.491,0,0,1,1.7,2.149,14.708,14.708,0,0,1,2.39,5.7,19.307,19.307,0,0,1,.138,2.583c.014,1.555-.012,3.256-.808,4.449a5.154,5.154,0,0,1-1.971,1.582,1.182,1.182,0,0,1-.62.2,1.317,1.317,0,0,1-.723-.43,9.429,9.429,0,0,1-2.278-2.744,14.775,14.775,0,0,1-.88-2.92,30.046,30.046,0,0,0-3.851-9.084A7.906,7.906,0,0,0,723.5,327.2c-.614-.441-1.308-.668-1.924-1.1-.68-.481-1-1.259-1.576-1.858C719.115,323.33,717.672,322.556,718.242,320.725Z"
      transform="translate(-532.637 -195.611)"
      fill="#281e74"
    />
    <path
      id="Path_1764"
      data-name="Path 1764"
      d="M649.663,433.049a17.319,17.319,0,0,0,3.738.754,62.915,62.915,0,0,0,7.782-2v3.67c-2.859.212-7.541.39-7.541.39l-1.849.2-.643-.6-3.818.151A3.576,3.576,0,0,1,649.663,433.049Z"
      transform="translate(-474.193 -285.262)"
      fill="#ee89c5"
    />
    <path
      id="Path_1765"
      data-name="Path 1765"
      d="M724.2,388.861l-3.448,9.72.508,2.887.86.734,3.832-6.46S725.377,389.7,724.2,388.861Z"
      transform="translate(-534.813 -251.685)"
      fill="#ee89c5"
    />
    <path
      id="Path_1766"
      data-name="Path 1766"
      d="M740.537,373.323s.6,4.478.763,8,1.487,2.665,2.09,3.57a1.594,1.594,0,0,1,.153.323,16.267,16.267,0,0,1,.443,3.869c.007.329.007.537.007.537h9.4s-1.527-1.76-1.084-6.639c.04-.441.078-.875.113-1.3.357-4.258.464-7.586-.193-9.416-.725-2.011-5.269-3.276-5.269-3.276l-2.972,1.867-1.042.744Z"
      transform="translate(-551.153 -236.149)"
      fill="#ff0098"
    />
    <path
      id="Path_1767"
      data-name="Path 1767"
      d="M754.516,373.035c.765.478,2.484-1.5,3.848-2.868s4.148,1.33,4.148,1.33-4.2,1.025-5.595,7.822c-.7,3.424-1.52,5.089-2.159,5.9a16.264,16.264,0,0,1,.443,3.869,22.861,22.861,0,0,1,2.1-3.379c1.8-2.526,5.114-5.68,6.343-4.022.357-4.258.464-7.586-.193-9.416-.725-2.011-5.269-3.276-5.269-3.276l-2.972,1.867-1.042.744C754.081,372.095,754.068,372.753,754.516,373.035Z"
      transform="translate(-562.368 -236.149)"
      fill="#f90f9a"
    />
    <path
      id="Path_1768"
      data-name="Path 1768"
      d="M631.963,541.175c-1.255.838-1.717,1.911-2.768,2.688s-2.477.514-2.518-.821a4.907,4.907,0,0,0,1.326-1.39c1.052-1.463,2.1-3.574,3.495-4.651a10.129,10.129,0,0,0,2.389-3.245l2.286,1.89-2.808,4.089S633.219,540.337,631.963,541.175Z"
      transform="translate(-457.138 -364.976)"
      fill="#fea3ff"
    />
    <path
      id="Path_1769"
      data-name="Path 1769"
      d="M613.868,564.854a3.179,3.179,0,0,0,1.139-.379c.042,1.334,1.47,1.6,2.518.821s1.512-1.851,2.768-2.688,1.4-1.44,1.4-1.44a3.238,3.238,0,0,1,.16,3.236,21.93,21.93,0,0,0-1.125,3.378l-.672-.2.324-2.729c-2.319,1.006-1.852,2.961-4.126,3.051a4.964,4.964,0,0,1-3.713-1.507S612.964,565.03,613.868,564.854Z"
      transform="translate(-445.467 -386.409)"
      fill="#060224"
    />
    <path
      id="Path_1770"
      data-name="Path 1770"
      d="M746.457,565.554c-.3,1.862-.608,2.072-.758,3.5s-1.373,3.176-2.016,1.871l-.019-.038a5.029,5.029,0,0,0,.122-2.321c-.316-1.317-.075-3.278-.44-5.154S741.9,558.1,741.9,558.1l2.888-.578.956,4.981A4.063,4.063,0,0,1,746.457,565.554Z"
      transform="translate(-552.281 -383.555)"
      fill="#ee89c5"
    />
    <path
      id="Path_1771"
      data-name="Path 1771"
      d="M748.218,589.995a3.969,3.969,0,0,0,.518-1.254l.019.038c.643,1.3,1.866-.443,2.016-1.871s.458-1.638.758-3.5a4.063,4.063,0,0,0-.711-3.056c1.576,1.207,1.654,2.251,1.662,3.778a10.156,10.156,0,0,0,.681,3.192l-.745.309-.593-1.988c-.448,1.055-.1,2.359-.153,3.662s-3.406,2.737-3.466,2.514S747.87,590.428,748.218,589.995Z"
      transform="translate(-557.353 -401.409)"
      fill="#060224"
    />
    <path
      id="Path_1772"
      data-name="Path 1772"
      d="M737.511,489.973s.161,3.068-3.457,3.571-8.159,1.107-8.159,1.107a61.575,61.575,0,0,1,2.814,12.324l-2.814.7s-1.969-6.388-3.376-10.815-1-7.344.322-7.746S737.511,489.973,737.511,489.973Z"
      transform="translate(-535.547 -330.012)"
      fill="#281e74"
    />
    <path
      id="Path_1773"
      data-name="Path 1773"
      d="M724.314,340.448a8.741,8.741,0,0,0,.815,5.861c.31.658.747,1.35,1.357,1.395.594.044,1.113-.555,1.708-.587a1.555,1.555,0,0,1,1.323,1.007,6.482,6.482,0,0,1,.488,1.927c.215.1.488-.051.7-.165a3.368,3.368,0,0,0,1.456-1.358,13.9,13.9,0,0,1-3.065-4.031.729.729,0,0,0,.661-.452,2.858,2.858,0,0,0-.124-2.347.622.622,0,0,0-1.063,0c-.175.333-.111.849-.372,1.077-.228.2-.55.026-.749-.217a3.119,3.119,0,0,0-.6-.717c-.337-.212-.758-.072-1.1-.258C725.236,341.314,724.864,340.425,724.314,340.448Z"
      transform="translate(-537.578 -213.831)"
      fill="#fea3ff"
    />
    <path
      id="Path_1774"
      data-name="Path 1774"
      d="M684.807,360.848l-.069,1.863s1.911.211,3.384-3.378c0,0-3.144-.6-4.3-2.176s-.677.958-.677.958Zm8.583,1.762s-1.487-.905-3.376,1.61-5.346,8.853-5.346,8.853-8,2.465-9.325,2.465a17.32,17.32,0,0,1-3.738-.755,3.576,3.576,0,0,0-2.331,2.565l3.818-.151.643.6,1.849-.2s9.245-.352,9.687-.654,7.034-6.388,8-8.954S694.234,363.667,693.39,362.61Z"
      transform="translate(-492.31 -226.492)"
      fill="#fea3ff"
    />
    <path
      id="Path_1775"
      data-name="Path 1775"
      d="M671.541,464.506c.723-1.509,7.757-1.107,7.757-1.107H688.7s1.889,5.08.08,8.1-7.758,1.509-10.451-.1a13.964,13.964,0,0,0-3.8-1.637.985.985,0,0,0-1.055.474c-1.336,2.038-5.829,8.764-9.046,12.027l-2.251-2.062S670.817,466.014,671.541,464.506Z"
      transform="translate(-486.458 -309.927)"
      fill="#c82586"
    />
    <path
      id="Path_1776"
      data-name="Path 1776"
      d="M752.771,359.01a13.926,13.926,0,0,1,2.017,2.487c1.841,3.468,3.832,1.618,5.178,1.9,2.063.43,2.811,2.126,2.832,4.91s1.315-1.493,1.315-1.493l-2.326-4.531Z"
      transform="translate(-561.255 -228.345)"
      fill="#281e74"
    />
  </g>
</svg>
